<svg width="251" height="250" viewBox="0 0 251 250" fill="none" xmlns="http://www.w3.org/2000/svg">
<g clip-path="url(#clip0_2001_1024)">
<path d="M125.5 229.167C183.03 229.167 229.667 182.53 229.667 125C229.667 67.4705 183.03 20.8335 125.5 20.8335C67.9703 20.8335 21.3334 67.4705 21.3334 125C21.3334 182.53 67.9703 229.167 125.5 229.167Z" fill="url(#paint0_linear_2001_1024)"/>
<g filter="url(#filter0_f_2001_1024)">
<path d="M125.5 201.087C167.522 201.087 201.587 167.022 201.587 125C201.587 82.9784 167.522 48.9131 125.5 48.9131C83.4784 48.9131 49.4131 82.9784 49.4131 125C49.4131 167.022 83.4784 201.087 125.5 201.087Z" fill="url(#paint1_linear_2001_1024)"/>
</g>
<path fill-rule="evenodd" clip-rule="evenodd" d="M118.341 40.3808C120.083 40.3808 121.496 38.968 121.496 37.2252C121.496 35.4826 120.083 34.0698 118.341 34.0698C116.598 34.0698 115.186 35.4826 115.186 37.2252C115.186 38.968 116.598 40.3808 118.341 40.3808ZM118.341 42.7474C121.39 42.7474 123.863 40.275 123.863 37.2252C123.863 34.1755 121.39 31.7031 118.341 31.7031C115.291 31.7031 112.819 34.1755 112.819 37.2252C112.819 40.275 115.291 42.7474 118.341 42.7474Z" fill="white"/>
<path fill-rule="evenodd" clip-rule="evenodd" d="M43.1598 185.308C44.9026 185.308 46.3153 183.895 46.3153 182.152C46.3153 180.409 44.9026 178.997 43.1598 178.997C41.4171 178.997 40.0044 180.409 40.0044 182.152C40.0044 183.895 41.4171 185.308 43.1598 185.308ZM43.1598 187.675C46.2096 187.675 48.682 185.202 48.682 182.152C48.682 179.102 46.2096 176.63 43.1598 176.63C40.1101 176.63 37.6377 179.102 37.6377 182.152C37.6377 185.202 40.1101 187.675 43.1598 187.675Z" fill="white"/>
<path fill-rule="evenodd" clip-rule="evenodd" d="M216.168 178.062C217.911 178.062 219.324 176.649 219.324 174.906C219.324 173.163 217.911 171.751 216.168 171.751C214.426 171.751 213.014 173.163 213.014 174.906C213.014 176.649 214.426 178.062 216.168 178.062ZM216.168 180.429C219.218 180.429 221.691 177.956 221.691 174.906C221.691 171.856 219.218 169.384 216.168 169.384C213.119 169.384 210.647 171.856 210.647 174.906C210.647 177.956 213.119 180.429 216.168 180.429Z" fill="white"/>
<path d="M66.9774 54.519C67.2094 53.5575 68.5771 53.5575 68.8092 54.519L69.5903 57.755C69.6733 58.0986 69.9416 58.3669 70.2852 58.4499L73.5212 59.231C74.4827 59.4631 74.4827 60.8308 73.5212 61.0628L70.2852 61.844C69.9416 61.9269 69.6733 62.1952 69.5903 62.5388L68.8092 65.7749C68.5771 66.7364 67.2094 66.7364 66.9774 65.7749L66.1962 62.5388C66.1132 62.1952 65.845 61.9269 65.5014 61.844L62.2653 61.0628C61.3038 60.8308 61.3038 59.4631 62.2653 59.231L65.5014 58.4499C65.845 58.3669 66.1132 58.0986 66.1962 57.755L66.9774 54.519Z" fill="white"/>
<path d="M200.949 196.188C201.204 195.134 202.703 195.134 202.957 196.188L203.813 199.735C203.904 200.111 204.198 200.406 204.575 200.496L208.122 201.353C209.176 201.607 209.176 203.106 208.122 203.361L204.575 204.217C204.198 204.308 203.904 204.602 203.813 204.978L202.957 208.525C202.703 209.58 201.204 209.58 200.949 208.525L200.092 204.978C200.002 204.602 199.707 204.308 199.332 204.217L195.784 203.361C194.73 203.106 194.73 201.607 195.784 201.353L199.332 200.496C199.707 200.406 200.002 200.111 200.092 199.735L200.949 196.188Z" fill="url(#paint2_linear_2001_1024)"/>
<path d="M52.1585 209.454C53.3578 209.262 54.3152 210.439 53.8819 211.574L50.9571 219.233C50.5237 220.368 49.0246 220.608 48.2587 219.665L43.0885 213.303C42.3225 212.361 42.8641 210.942 44.0634 210.75L52.1585 209.454Z" fill="url(#paint3_linear_2001_1024)"/>
<path d="M206.098 62.5059C205.798 61.329 206.884 60.2686 208.053 60.5972L215.947 62.8152C217.115 63.1437 217.491 64.6148 216.621 65.4632L210.755 71.1894C209.885 72.0376 208.424 71.6269 208.123 70.45L206.098 62.5059Z" fill="url(#paint4_linear_2001_1024)"/>
<path d="M179.818 117.492L162.705 120.819C157.835 121.765 154.656 126.479 155.602 131.348C156.549 136.217 161.263 139.396 166.131 138.45L183.246 135.123C188.114 134.177 191.294 129.463 190.347 124.594C189.401 119.726 184.687 116.545 179.818 117.492Z" fill="url(#paint5_linear_2001_1024)"/>
<path d="M186.544 126.272C186.63 124.055 184.903 122.188 182.686 122.102C180.469 122.015 178.602 123.743 178.516 125.959C178.429 128.176 180.157 130.042 182.373 130.129C184.591 130.215 186.457 128.488 186.544 126.272Z" fill="#EBEBEB"/>
<path d="M182.947 128.274C184.139 128.042 184.917 126.888 184.686 125.697C184.454 124.505 183.3 123.727 182.108 123.958C180.917 124.189 180.138 125.343 180.37 126.535C180.601 127.727 181.755 128.506 182.947 128.274Z" fill="#DBDBDB"/>
<path d="M152.684 90.444L65.3022 107.43C60.3915 108.383 57.1844 113.139 58.1389 118.049L69.9452 178.786C70.8997 183.698 75.6543 186.904 80.565 185.95L167.947 168.965C172.858 168.01 176.064 163.256 175.11 158.344L163.303 97.6071C162.35 92.6968 157.595 89.4895 152.684 90.444Z" fill="url(#paint6_linear_2001_1024)"/>
<path d="M151.087 62.8245L168.937 108.962C169.936 111.541 168.651 114.441 166.077 115.438L92.9039 143.747C90.3294 144.745 87.429 143.461 86.4296 140.882L68.5804 94.7445C67.6538 92.3441 68.8442 89.647 71.2452 88.7206L145.061 60.1654C147.462 59.239 150.158 60.4292 151.085 62.8303L151.087 62.8245Z" fill="url(#paint7_linear_2001_1024)"/>
<path d="M154.524 107.061C155.439 109.434 154.263 112.101 151.89 113.016C149.519 113.932 146.851 112.754 145.936 110.382C145.02 108.011 146.197 105.343 148.57 104.427C150.941 103.512 153.61 104.69 154.524 107.061Z" fill="url(#paint8_linear_2001_1024)"/>
<path d="M159.811 105.013C160.727 107.385 159.549 110.052 157.178 110.968C154.805 111.883 152.138 110.706 151.222 108.334C150.307 105.962 151.485 103.294 153.856 102.379C156.228 101.464 158.896 102.641 159.811 105.013Z" fill="url(#paint9_linear_2001_1024)"/>
<path d="M90.6343 90.3261L78.6458 94.9638C77.6792 95.3379 77.1988 96.4248 77.5727 97.3913L80.36 104.596C80.7339 105.563 81.8207 106.043 82.7873 105.669L94.7753 101.031C95.7427 100.658 96.2228 99.5707 95.8487 98.6042L93.0616 91.3995C92.6875 90.4326 91.6005 89.9522 90.6343 90.3261Z" fill="url(#paint10_linear_2001_1024)"/>
<path d="M145.2 75.9629L138.19 78.6727C136.568 79.2956 134.747 78.4918 134.12 76.8708C133.497 75.2482 134.301 73.4273 135.922 72.8003L142.931 70.0904C144.553 69.4634 146.375 70.2714 147.002 71.8924C147.625 73.5149 146.821 75.3359 145.2 75.9629Z" fill="white"/>
<path d="M84.2417 116.319L83.7519 116.938C83.7519 116.938 83.7114 116.982 83.6822 116.993C83.6238 117.015 83.5609 117.001 83.5199 116.969C83.442 116.903 83.4318 116.802 83.4966 116.734L84.1609 115.871C84.2174 115.806 84.3313 115.792 84.3961 115.848C84.4313 115.878 84.4499 115.913 84.4617 115.957L86.0594 120.082C86.0914 120.165 86.0561 120.26 85.9644 120.295C85.8808 120.327 85.7827 120.284 85.7508 120.2L84.25 116.315L84.2417 116.319Z" fill="#F8F8F8"/>
<path d="M87.1085 119.535L88.4722 116.829C88.6329 116.499 88.6479 116.139 88.5246 115.818C88.4189 115.542 88.2089 115.308 87.9239 115.163C87.6026 115 87.2359 114.992 86.9247 115.116C86.641 115.225 86.4026 115.426 86.2541 115.714L86.1141 115.997C86.0756 116.083 85.9697 116.119 85.8956 116.076C85.809 116.037 85.7732 115.932 85.8165 115.858L85.9549 115.57C86.1425 115.211 86.4516 114.944 86.8062 114.808C87.1982 114.657 87.6522 114.655 88.0707 114.872C88.4424 115.055 88.702 115.358 88.8348 115.704C88.987 116.1 88.9822 116.561 88.7747 116.981L87.6071 119.301L89.7345 118.483C89.8163 118.447 89.9128 118.487 89.9481 118.579C89.98 118.662 89.9364 118.761 89.853 118.792L87.3492 119.762L87.3242 119.772C87.2783 119.791 87.2276 119.795 87.1898 119.772C87.1042 119.723 87.0674 119.627 87.1059 119.541L87.1085 119.535Z" fill="#F8F8F8"/>
<path d="M92.0932 113.083L91.394 114.726C91.6992 114.676 92.0217 114.705 92.3224 114.839C92.7318 115.021 93.0325 115.355 93.1829 115.747C93.3333 116.139 93.3378 116.588 93.1512 116.999C92.9691 117.409 92.6358 117.714 92.2454 117.869C91.8623 118.015 91.4139 118.02 91.0024 117.833C90.9174 117.799 90.8748 117.701 90.916 117.609C90.9488 117.519 91.0489 117.481 91.1412 117.522C91.4673 117.66 91.8161 117.66 92.1249 117.542C92.4338 117.423 92.6974 117.187 92.846 116.863C92.9918 116.533 92.9864 116.182 92.8677 115.873C92.749 115.564 92.5144 115.301 92.1883 115.163C91.8632 115.014 91.5117 115.021 91.2028 115.139C91.153 115.158 91.0969 115.15 91.0494 115.126L91.0411 115.129C90.9503 115.092 90.9103 114.988 90.953 114.899L91.6249 113.321L89.9021 113.982C89.8119 114.022 89.7138 113.978 89.6802 113.89C89.645 113.799 89.6886 113.7 89.7762 113.667L91.8786 112.86C91.9682 112.821 92.067 112.864 92.1005 112.952C92.1104 112.976 92.1114 113.005 92.1068 113.031C92.1068 113.054 92.1005 113.076 92.0923 113.093L92.0932 113.083Z" fill="#F8F8F8"/>
<path d="M97.1349 114.911L94.7029 115.853L94.682 115.862C94.6485 115.874 94.6078 115.881 94.5734 115.865C94.4828 115.843 94.4348 115.741 94.4692 115.656L95.8179 111.415L95.8224 111.403C95.8541 111.31 95.9384 111.268 96.0317 111.299C96.0643 111.311 96.0888 111.335 96.1105 111.355C96.115 111.368 96.1268 111.372 96.1286 111.377L96.1368 111.398L97.3279 114.478L97.6286 114.362C97.7201 114.327 97.8188 114.371 97.8505 114.454C97.8822 114.537 97.8388 114.635 97.7509 114.669L97.4511 114.785L97.7473 115.556C97.779 115.64 97.7355 115.737 97.6476 115.771C97.5643 115.804 97.4665 115.759 97.4339 115.676L97.1377 114.904L97.1349 114.911ZM97.0172 114.602L95.9982 111.973L94.8931 115.427L97.0199 114.61L97.0172 114.602Z" fill="#F8F8F8"/>
<path d="M102.949 113.214C102.859 113.177 102.819 113.073 102.863 112.988C102.902 112.902 103.005 112.858 103.092 112.9C103.419 113.039 103.768 113.039 104.076 112.92C104.385 112.802 104.64 112.57 104.787 112.241C104.934 111.911 104.929 111.563 104.811 111.255C104.691 110.942 104.456 110.679 104.132 110.534C103.811 110.395 103.457 110.397 103.149 110.515C102.835 110.635 102.576 110.869 102.429 111.198C102.39 111.284 102.286 111.324 102.204 111.284C102.178 111.28 102.158 111.264 102.148 111.248L102.144 111.24C102.144 111.24 102.131 111.231 102.128 111.223C102.115 111.213 102.107 111.192 102.101 111.176C102.097 111.168 102.096 111.153 102.092 111.14L101.608 109.245C101.589 109.195 101.598 109.143 101.626 109.104C101.641 109.069 101.674 109.043 101.716 109.026L103.81 108.223C103.899 108.183 103.997 108.227 104.032 108.314C104.068 108.41 104.023 108.505 103.936 108.538L101.975 109.291L102.332 110.695C102.508 110.468 102.744 110.297 103.015 110.193C103.408 110.043 103.844 110.033 104.261 110.222C104.679 110.401 104.968 110.73 105.122 111.131C105.269 111.515 105.285 111.968 105.094 112.381C104.91 112.786 104.573 113.093 104.186 113.242C103.794 113.392 103.345 113.397 102.936 113.215L102.949 113.214Z" fill="#F8F8F8"/>
<path d="M106.042 108.491C106.141 107.826 106.503 107.223 107.238 106.907C107.319 106.867 107.417 106.91 107.457 106.991C107.492 107.082 107.448 107.18 107.367 107.216C106.746 107.484 106.475 107.961 106.37 108.537C106.317 108.859 106.339 109.215 106.399 109.56C106.552 109.147 106.871 108.794 107.314 108.625C108.144 108.306 109.062 108.715 109.376 109.533C109.691 110.354 109.286 111.27 108.462 111.591C107.658 111.9 106.759 111.518 106.424 110.733C106.375 110.641 106.338 110.545 106.298 110.441C106.073 109.843 105.943 109.141 106.046 108.489L106.042 108.491ZM106.727 110.587C106.74 110.62 106.758 110.642 106.772 110.666C106.78 110.686 106.784 110.699 106.781 110.715C107.08 111.256 107.745 111.507 108.334 111.282C108.989 111.031 109.311 110.299 109.064 109.657C108.818 109.014 108.086 108.692 107.431 108.944C106.789 109.19 106.466 109.921 106.714 110.564L106.723 110.589L106.727 110.587Z" fill="#F8F8F8"/>
<path d="M111.5 110.168L111.636 105.584L109.462 106.418C109.38 106.454 109.284 106.415 109.252 106.331C109.22 106.248 109.264 106.149 109.347 106.118L111.725 105.205C111.753 105.179 111.783 105.168 111.821 105.168C111.866 105.175 111.914 105.199 111.941 105.232C111.957 105.25 111.967 105.261 111.973 105.277C111.986 105.311 111.986 105.339 111.979 105.37L111.839 110.177C111.836 110.245 111.792 110.305 111.734 110.327C111.708 110.337 111.696 110.341 111.666 110.339C111.574 110.336 111.5 110.255 111.496 110.169L111.5 110.168Z" fill="#F8F8F8"/>
<path d="M114.282 104.174C114.795 103.977 115.38 104.231 115.578 104.744C115.697 105.057 115.648 105.387 115.486 105.65C116.102 105.662 116.679 106.043 116.912 106.649C117.223 107.457 116.826 108.357 116.018 108.671C115.213 108.981 114.31 108.585 113.996 107.778C113.763 107.173 113.933 106.505 114.373 106.082C114.082 105.997 113.828 105.784 113.708 105.471C113.511 104.958 113.758 104.38 114.28 104.179L114.282 104.174ZM115.902 108.357C116.544 108.111 116.851 107.399 116.608 106.765C116.366 106.136 115.659 105.813 115.015 106.061C114.381 106.303 114.069 107.022 114.311 107.652C114.555 108.29 115.268 108.601 115.902 108.357ZM114.889 105.741C115.231 105.6 115.406 105.207 115.274 104.861C115.14 104.515 114.751 104.348 114.405 104.481C114.059 104.614 113.89 104.999 114.024 105.345C114.157 105.691 114.544 105.868 114.892 105.739L114.889 105.741Z" fill="#F8F8F8"/>
<path d="M122.266 101.086C123.038 100.79 123.881 101.118 124.248 101.823C124.261 101.833 124.264 101.841 124.274 101.852C124.328 101.97 124.382 102.098 124.433 102.231C124.662 102.828 124.792 103.539 124.697 104.188C124.592 104.841 124.227 105.459 123.5 105.772L123.492 105.775C123.4 105.811 123.305 105.775 123.273 105.692C123.238 105.6 123.274 105.509 123.363 105.466C123.974 105.197 124.264 104.718 124.36 104.145C124.409 103.815 124.399 103.465 124.331 103.122C124.178 103.535 123.853 103.875 123.403 104.048C122.585 104.361 121.668 103.967 121.345 103.139C121.032 102.322 121.44 101.403 122.258 101.09L122.266 101.086ZM124.012 102.106C123.765 101.464 123.041 101.148 122.386 101.399C121.744 101.646 121.42 102.373 121.665 103.012C121.917 103.667 122.643 103.976 123.285 103.729C123.94 103.478 124.264 102.761 124.007 102.107L124.012 102.106Z" fill="#F8F8F8"/>
<path d="M125.768 102.316C125.536 101.712 125.475 101.103 125.589 100.576C125.71 100.071 125.996 99.645 126.451 99.4702C126.906 99.2954 127.408 99.4186 127.835 99.7094C128.266 100.023 128.645 100.509 128.881 101.112C129.113 101.717 129.162 102.33 129.049 102.847C128.929 103.357 128.644 103.787 128.189 103.962C127.735 104.136 127.233 104.013 126.803 103.714C126.37 103.411 125.999 102.918 125.766 102.313L125.768 102.316ZM126.081 102.197C126.293 102.747 126.633 103.186 127 103.442C127.364 103.695 127.748 103.773 128.07 103.649C128.39 103.525 128.614 103.21 128.721 102.777C128.817 102.343 128.781 101.787 128.57 101.237C128.359 100.686 128.009 100.25 127.647 99.992C127.274 99.7293 126.899 99.6622 126.577 99.7854C126.255 99.9086 126.019 100.215 125.926 100.658C125.83 101.092 125.874 101.644 126.087 102.199L126.081 102.197Z" fill="#F8F8F8"/>
<path d="M130.264 98.5171L129.774 99.1367C129.774 99.1367 129.734 99.1802 129.705 99.1919C129.646 99.2146 129.583 99.2001 129.542 99.1684C129.464 99.1023 129.454 99.0008 129.519 98.9329L130.183 98.0697C130.24 98.0053 130.353 97.99 130.418 98.047C130.454 98.076 130.472 98.1122 130.484 98.1557L132.081 102.28C132.113 102.364 132.078 102.458 131.986 102.494C131.903 102.526 131.805 102.482 131.773 102.398L130.273 98.5144L130.264 98.5171Z" fill="#F8F8F8"/>
<path d="M133.129 101.731L134.493 99.0252C134.654 98.6955 134.668 98.335 134.545 98.0143C134.439 97.7389 134.23 97.5034 133.945 97.3594C133.623 97.1955 133.256 97.1882 132.946 97.3123C132.662 97.421 132.425 97.6266 132.274 97.9092L132.135 98.1927C132.096 98.2797 131.99 98.315 131.917 98.2716C131.83 98.2335 131.793 98.1275 131.837 98.0533L131.975 97.7661C132.163 97.4065 132.472 97.1393 132.825 96.9989C133.217 96.8485 133.671 96.8467 134.09 97.0641C134.461 97.2471 134.721 97.5496 134.854 97.8957C135.006 98.2915 135.001 98.7534 134.793 99.1728L133.626 101.493L135.754 100.676C135.835 100.639 135.934 100.683 135.967 100.771C135.999 100.854 135.956 100.952 135.872 100.984L133.369 101.955L133.343 101.964C133.297 101.982 133.246 101.987 133.209 101.964C133.123 101.915 133.086 101.819 133.125 101.733L133.129 101.731Z" fill="#F8F8F8"/>
<path d="M141.961 93.7928L141.261 95.4359C141.567 95.3852 141.889 95.4141 142.189 95.5482C142.6 95.7303 142.9 96.0645 143.051 96.4567C143.201 96.8489 143.206 97.2973 143.019 97.7085C142.836 98.1189 142.504 98.4232 142.117 98.5763C141.734 98.7239 141.281 98.7303 140.87 98.5437C140.784 98.5093 140.742 98.4105 140.784 98.3181C140.818 98.233 140.916 98.1904 141.008 98.2312C141.334 98.3698 141.684 98.3698 141.993 98.2511C142.301 98.1324 142.565 97.8969 142.713 97.5727C142.86 97.2439 142.853 96.8915 142.736 96.5826C142.617 96.2747 142.381 96.0102 142.055 95.8725C141.731 95.7239 141.379 95.7303 141.07 95.8489C141.02 95.868 140.965 95.8607 140.917 95.8353L140.909 95.839C140.818 95.8018 140.777 95.6977 140.821 95.6089L141.492 94.031L139.769 94.6922C139.679 94.7312 139.582 94.6877 139.547 94.5998C139.513 94.5084 139.556 94.4096 139.643 94.3761L141.745 93.569C141.836 93.5301 141.934 93.5736 141.967 93.6614C141.977 93.6868 141.978 93.7149 141.974 93.7402C141.974 93.7647 141.967 93.7855 141.96 93.8027L141.961 93.7928Z" fill="#F8F8F8"/>
<path d="M147.003 95.6198L144.567 96.5554L144.56 96.5627L144.548 96.5672C144.514 96.5799 144.476 96.5908 144.439 96.5708C144.349 96.5482 144.301 96.4467 144.335 96.3616L145.684 92.1207L145.688 92.1089C145.72 92.0156 145.804 91.9739 145.898 92.0056C145.93 92.0165 145.955 92.041 145.976 92.0609C145.981 92.0736 145.989 92.0799 145.995 92.0826L146.003 92.1034L147.194 95.1832L147.495 95.0681C147.586 95.0328 147.685 95.0763 147.716 95.1596C147.748 95.2429 147.705 95.3417 147.617 95.3752L147.317 95.4902L147.613 96.262C147.645 96.3453 147.601 96.4431 147.514 96.4766C147.43 96.5092 147.332 96.4658 147.3 96.3815L147.004 95.6098L147.003 95.6198ZM146.884 95.3118L145.866 92.6823L144.76 96.1361L146.888 95.3199L146.884 95.3118Z" fill="#F8F8F8"/>
<path d="M148.97 95.4095C148.879 95.3724 148.84 95.2682 148.884 95.1839C148.922 95.0979 149.027 95.0571 149.113 95.0961C149.439 95.2338 149.788 95.2338 150.097 95.116C150.406 94.9974 150.661 94.7655 150.808 94.4358C150.955 94.107 150.95 93.7591 150.831 93.4503C150.711 93.1378 150.476 92.8742 150.153 92.7301C149.83 92.5861 149.477 92.5916 149.169 92.7102C148.856 92.8307 148.597 93.0644 148.45 93.3932C148.411 93.4801 148.309 93.5236 148.225 93.4792C148.199 93.4747 148.178 93.4593 148.168 93.4439L148.165 93.4358C148.165 93.4358 148.152 93.4267 148.149 93.4176C148.135 93.4086 148.128 93.3878 148.121 93.3714C148.118 93.3624 148.117 93.3488 148.112 93.3361L147.629 91.4403C147.61 91.3896 147.619 91.3388 147.647 91.299C147.662 91.2646 147.695 91.2374 147.736 91.222L149.83 90.4179C149.92 90.3785 150.018 90.4222 150.052 90.5098C150.089 90.606 150.043 90.6993 149.956 90.7329L147.995 91.4856L148.352 92.8896C148.531 92.6686 148.764 92.4919 149.036 92.3887C149.427 92.2374 149.864 92.2283 150.282 92.4176C150.7 92.597 150.989 92.9258 151.143 93.3262C151.29 93.7102 151.306 94.1631 151.115 94.5762C150.931 94.982 150.594 95.2881 150.206 95.4376C149.814 95.5879 149.366 95.5925 148.956 95.4104L148.97 95.4095Z" fill="#F8F8F8"/>
<path d="M152.062 90.6864C152.162 90.0212 152.522 89.4138 153.259 89.1022C153.34 89.0619 153.437 89.1055 153.477 89.1858C153.513 89.2775 153.469 89.3756 153.388 89.4118C152.769 89.6828 152.495 90.1561 152.391 90.7326C152.338 91.0541 152.36 91.4092 152.42 91.7552C152.573 91.3422 152.892 90.9898 153.334 90.8205C154.165 90.5014 155.082 90.9101 155.397 91.7272C155.712 92.5496 155.307 93.4654 154.483 93.7869C153.678 94.0958 152.78 93.7136 152.445 92.9273C152.395 92.8368 152.359 92.7407 152.319 92.6366C152.093 92.0378 151.963 91.3368 152.067 90.6846L152.062 90.6864ZM152.748 92.7824C152.761 92.8159 152.779 92.8377 152.793 92.8612C152.801 92.882 152.805 92.8947 152.802 92.9101C153.101 93.4509 153.766 93.7027 154.354 93.4772C155.009 93.2253 155.332 92.4944 155.085 91.8522C154.839 91.209 154.107 90.8875 153.452 91.1384C152.81 91.3857 152.487 92.1166 152.734 92.7589L152.744 92.7842L152.748 92.7824Z" fill="#F8F8F8"/>
<path d="M128.536 112.685L89.3539 127.843L90.0987 129.768L129.281 114.609L128.536 112.685Z" fill="url(#paint11_linear_2001_1024)"/>
<path d="M118.749 121.391L91.0092 132.123L91.7536 134.048L119.494 123.316L118.749 121.391Z" fill="url(#paint12_linear_2001_1024)"/>
<path d="M129.328 75.352L111.714 82.1663C111.182 82.3721 110.918 82.9697 111.123 83.5013C111.329 84.0329 111.927 84.2972 112.458 84.0915L130.072 77.2772C130.604 77.0715 130.868 76.4739 130.662 75.9423C130.457 75.4106 129.859 75.1463 129.328 75.352Z" fill="#3B3B3B"/>
<path d="M161.606 124.534L69.8008 142.38L76.945 179.134L168.751 161.289L161.606 124.534Z" fill="url(#paint13_linear_2001_1024)"/>
<path opacity="0.2" d="M161.606 124.534L69.8008 142.38L76.945 179.134L168.751 161.289L161.606 124.534Z" fill="black"/>
<path d="M170.086 183.286L79.6364 187.863C75.1328 188.091 71.1475 184.972 70.2871 180.545L57.2668 113.561C56.9595 111.981 58.5837 110.725 60.0365 111.419C61.7224 112.225 63.5958 112.566 65.463 112.408L146.717 105.458C151.33 105.063 155.497 108.21 156.38 112.754L170.09 183.281C170.09 183.282 170.088 183.285 170.086 183.286Z" fill="url(#paint14_linear_2001_1024)"/>
<path d="M150.874 150.298C152.979 149.889 154.308 147.613 153.842 145.216C153.376 142.818 151.292 141.206 149.187 141.614C147.082 142.023 145.753 144.299 146.219 146.697C146.686 149.095 148.77 150.707 150.874 150.298Z" fill="#EBEBEB"/>
<path d="M151.803 145.612C152.019 146.726 151.401 147.784 150.423 147.974C149.445 148.164 148.476 147.415 148.259 146.301C148.043 145.187 148.66 144.129 149.639 143.939C150.617 143.749 151.586 144.498 151.803 145.612Z" fill="#DBDBDB"/>
</g>
<defs>
<filter id="filter0_f_2001_1024" x="-4.58691" y="-5.08691" width="260.174" height="260.174" filterUnits="userSpaceOnUse" color-interpolation-filters="sRGB">
<feFlood flood-opacity="0" result="BackgroundImageFix"/>
<feBlend mode="normal" in="SourceGraphic" in2="BackgroundImageFix" result="shape"/>
<feGaussianBlur stdDeviation="27" result="effect1_foregroundBlur_2001_1024"/>
</filter>
<linearGradient id="paint0_linear_2001_1024" x1="50.3944" y1="20.8335" x2="209.398" y2="53.9322" gradientUnits="userSpaceOnUse">
<stop stop-color="#A259FF"/>
<stop offset="1" stop-color="#3B3B3B"/>
</linearGradient>
<linearGradient id="paint1_linear_2001_1024" x1="74.0508" y1="48.9131" x2="221.205" y2="77.2927" gradientUnits="userSpaceOnUse">
<stop stop-color="#A259FF" stop-opacity="0"/>
<stop offset="1" stop-color="#FF6250"/>
</linearGradient>
<linearGradient id="paint2_linear_2001_1024" x1="204.928" y1="198.491" x2="218.271" y2="208.97" gradientUnits="userSpaceOnUse">
<stop stop-color="#A259FF"/>
<stop offset="1" stop-color="#377DF7"/>
</linearGradient>
<linearGradient id="paint3_linear_2001_1024" x1="53.3953" y1="213.338" x2="52.9496" y2="226.613" gradientUnits="userSpaceOnUse">
<stop stop-color="#A259FF"/>
<stop offset="1" stop-color="#377DF7"/>
</linearGradient>
<linearGradient id="paint4_linear_2001_1024" x1="209.854" y1="60.9218" x2="223.115" y2="60.1613" gradientUnits="userSpaceOnUse">
<stop stop-color="#A259FF"/>
<stop offset="1" stop-color="#377DF7"/>
</linearGradient>
<linearGradient id="paint5_linear_2001_1024" x1="159.514" y1="121.438" x2="192.214" y2="127.092" gradientUnits="userSpaceOnUse">
<stop stop-color="#A259FF"/>
<stop offset="1" stop-color="#3B3B3B"/>
</linearGradient>
<linearGradient id="paint6_linear_2001_1024" x1="137.998" y1="203.71" x2="102.673" y2="134.34" gradientUnits="userSpaceOnUse">
<stop stop-color="#A259FF"/>
<stop offset="1" stop-color="#3B3B3B"/>
</linearGradient>
<linearGradient id="paint7_linear_2001_1024" x1="80.2248" y1="85.0535" x2="165.298" y2="77.7054" gradientUnits="userSpaceOnUse">
<stop stop-color="#A259FF"/>
<stop offset="1" stop-color="#FF6250"/>
</linearGradient>
<linearGradient id="paint8_linear_2001_1024" x1="145.673" y1="105.54" x2="154.602" y2="103.952" gradientUnits="userSpaceOnUse">
<stop stop-color="#A259FF"/>
<stop offset="1" stop-color="#FF6250"/>
</linearGradient>
<linearGradient id="paint9_linear_2001_1024" x1="150.96" y1="103.491" x2="159.889" y2="101.903" gradientUnits="userSpaceOnUse">
<stop stop-color="#A259FF"/>
<stop offset="1" stop-color="#3B3B3B"/>
</linearGradient>
<linearGradient id="paint10_linear_2001_1024" x1="79.4033" y1="94.6712" x2="95.3722" y2="93.1169" gradientUnits="userSpaceOnUse">
<stop stop-color="#A259FF"/>
<stop offset="1" stop-color="#3B3B3B"/>
</linearGradient>
<linearGradient id="paint11_linear_2001_1024" x1="95.6974" y1="125.388" x2="101.73" y2="133.864" gradientUnits="userSpaceOnUse">
<stop stop-color="#A259FF"/>
<stop offset="1" stop-color="#FF6250"/>
</linearGradient>
<linearGradient id="paint12_linear_2001_1024" x1="95.5" y1="130.385" x2="102.12" y2="138.016" gradientUnits="userSpaceOnUse">
<stop stop-color="#A259FF"/>
<stop offset="1" stop-color="#FF6250"/>
</linearGradient>
<linearGradient id="paint13_linear_2001_1024" x1="84.6645" y1="139.491" x2="166.398" y2="160.965" gradientUnits="userSpaceOnUse">
<stop stop-color="#A259FF"/>
<stop offset="1" stop-color="#3B3B3B"/>
</linearGradient>
<linearGradient id="paint14_linear_2001_1024" x1="145.695" y1="160.975" x2="4.10611" y2="93.0225" gradientUnits="userSpaceOnUse">
<stop stop-color="#A259FF"/>
<stop offset="0.666667" stop-color="white"/>
</linearGradient>
<clipPath id="clip0_2001_1024">
<rect width="250" height="250" fill="white" transform="translate(0.5)"/>
</clipPath>
</defs>
</svg>
