<svg width="251" height="250" viewBox="0 0 251 250" fill="none" xmlns="http://www.w3.org/2000/svg">
<g clip-path="url(#clip0_2001_1099)">
<path d="M125.5 229.167C183.03 229.167 229.667 182.53 229.667 125C229.667 67.4705 183.03 20.8335 125.5 20.8335C67.9703 20.8335 21.3334 67.4705 21.3334 125C21.3334 182.53 67.9703 229.167 125.5 229.167Z" fill="url(#paint0_linear_2001_1099)"/>
<g filter="url(#filter0_f_2001_1099)">
<path d="M131.841 201.087C170.361 201.087 201.587 169.861 201.587 131.341C201.587 92.8208 170.361 61.5942 131.841 61.5942C93.3208 61.5942 62.0942 92.8208 62.0942 131.341C62.0942 169.861 93.3208 201.087 131.841 201.087Z" fill="url(#paint1_linear_2001_1099)"/>
</g>
<path fill-rule="evenodd" clip-rule="evenodd" d="M56.7467 82.0473C58.4895 82.0473 59.9022 80.6345 59.9022 78.8917C59.9022 77.1491 58.4895 75.7363 56.7467 75.7363C55.004 75.7363 53.5913 77.1491 53.5913 78.8917C53.5913 80.6345 55.004 82.0473 56.7467 82.0473ZM56.7467 84.4139C59.7965 84.4139 62.2689 81.9415 62.2689 78.8917C62.2689 75.842 59.7965 73.3696 56.7467 73.3696C53.697 73.3696 51.2246 75.842 51.2246 78.8917C51.2246 81.9415 53.697 84.4139 56.7467 84.4139Z" fill="white"/>
<path fill-rule="evenodd" clip-rule="evenodd" d="M46.783 179.873C48.5257 179.873 49.9385 178.46 49.9385 176.718C49.9385 174.975 48.5257 173.563 46.783 173.563C45.0403 173.563 43.6275 174.975 43.6275 176.718C43.6275 178.46 45.0403 179.873 46.783 179.873ZM46.783 182.24C49.8328 182.24 52.3052 179.767 52.3052 176.718C52.3052 173.668 49.8328 171.196 46.783 171.196C43.7332 171.196 41.2609 173.668 41.2609 176.718C41.2609 179.767 43.7332 182.24 46.783 182.24Z" fill="white"/>
<path fill-rule="evenodd" clip-rule="evenodd" d="M193.522 46.7211C195.264 46.7211 196.678 45.3083 196.678 43.5656C196.678 41.8229 195.264 40.4101 193.522 40.4101C191.779 40.4101 190.367 41.8229 190.367 43.5656C190.367 45.3083 191.779 46.7211 193.522 46.7211ZM193.522 49.0877C196.572 49.0877 199.044 46.6154 199.044 43.5656C199.044 40.5158 196.572 38.0435 193.522 38.0435C190.472 38.0435 188 40.5158 188 43.5656C188 46.6154 190.472 49.0877 193.522 49.0877Z" fill="white"/>
<path d="M59.7308 38.2143C59.9628 37.2528 61.3305 37.2528 61.5626 38.2143L62.3437 41.4503C62.4267 41.7939 62.6949 42.0622 63.0386 42.1452L66.2746 42.9263C67.2361 43.1584 67.2361 44.5261 66.2746 44.7581L63.0386 45.5393C62.6949 45.6223 62.4267 45.8905 62.3437 46.2341L61.5626 49.4702C61.3305 50.4317 59.9628 50.4317 59.7308 49.4702L58.9496 46.2341C58.8666 45.8905 58.5984 45.6223 58.2548 45.5393L55.0187 44.7581C54.0572 44.5261 54.0572 43.1584 55.0187 42.9263L58.2548 42.1452C58.5984 42.0622 58.8666 41.7939 58.9496 41.4503L59.7308 38.2143Z" fill="white"/>
<path d="M205.476 71.1879C205.73 70.134 207.229 70.134 207.484 71.1879L208.341 74.735C208.431 75.1116 208.726 75.4057 209.101 75.4967L212.649 76.3529C213.703 76.6073 213.703 78.1064 212.649 78.3608L209.101 79.217C208.726 79.308 208.431 79.602 208.341 79.9786L207.484 83.5258C207.229 84.5797 205.73 84.5797 205.476 83.5258L204.62 79.9786C204.529 79.602 204.235 79.308 203.858 79.217L200.311 78.3608C199.257 78.1064 199.257 76.6073 200.311 76.3529L203.858 75.4967C204.235 75.4057 204.529 75.1116 204.62 74.735L205.476 71.1879Z" fill="url(#paint2_linear_2001_1099)"/>
<path d="M50.3471 200.397C51.5464 200.205 52.5038 201.382 52.0705 202.517L49.1457 210.176C48.7123 211.311 47.2132 211.551 46.4473 210.608L41.2771 204.245C40.5111 203.303 41.0527 201.885 42.252 201.693L50.3471 200.397Z" fill="url(#paint3_linear_2001_1099)"/>
<path d="M191.603 182.977C191.303 181.8 192.39 180.74 193.559 181.068L201.452 183.286C202.62 183.615 202.996 185.086 202.127 185.934L196.26 191.66C195.39 192.509 193.929 192.098 193.629 190.921L191.603 182.977Z" fill="url(#paint4_linear_2001_1099)"/>
<g filter="url(#filter1_f_2001_1099)">
<path d="M180.777 205.132C180.777 210.721 154.265 215.251 121.562 215.251C88.8596 215.251 62.3485 210.721 62.3485 205.132C62.3485 199.544 88.8596 195.014 121.562 195.014C154.265 195.014 180.777 199.544 180.777 205.132Z" fill="url(#paint5_radial_2001_1099)"/>
</g>
<g filter="url(#filter2_i_2001_1099)">
<path d="M122.715 59.8649L84.1472 66.6653C81.0489 67.2117 78.98 70.1663 79.5263 73.2647L89.2465 128.391C89.7928 131.489 92.7475 133.558 95.8459 133.011L134.413 126.211C137.512 125.665 139.581 122.71 139.035 119.612L129.314 64.4858C128.767 61.3874 125.813 59.3185 122.715 59.8649Z" fill="url(#paint6_linear_2001_1099)"/>
</g>
<path d="M123.273 88.2023L93.3129 93.4851C92.304 93.663 91.6304 94.6251 91.8083 95.6339L91.8094 95.6398C91.9873 96.6487 92.9493 97.3223 93.9581 97.1444L123.919 91.8616C124.927 91.6837 125.601 90.7217 125.423 89.7128L125.422 89.7069C125.244 88.6981 124.282 88.0244 123.273 88.2023Z" fill="url(#paint7_linear_2001_1099)"/>
<path d="M127.83 113.947L98.128 119.184C97.1278 119.361 96.4567 120.296 96.629 121.273L96.63 121.279C96.8024 122.257 97.7529 122.906 98.7531 122.73L128.455 117.492C129.456 117.316 130.127 116.381 129.954 115.403L129.954 115.397C129.781 114.42 128.83 113.77 127.83 113.947Z" fill="url(#paint8_linear_2001_1099)"/>
<path d="M125.456 100.477L95.753 105.714C94.7528 105.891 94.0817 106.825 94.254 107.803L94.255 107.809C94.4273 108.786 95.3779 109.436 96.378 109.259L126.081 104.022C127.081 103.845 127.752 102.91 127.58 101.933L127.579 101.927C127.406 100.95 126.456 100.3 125.456 100.477Z" fill="url(#paint9_linear_2001_1099)"/>
<path d="M100.906 72.4884L92.1506 74.0321C90.2112 74.3741 88.9163 76.2235 89.2583 78.1628L89.6867 80.5925C90.0286 82.5318 91.878 83.8268 93.8174 83.4848L102.572 81.9411C104.512 81.5991 105.807 79.7498 105.465 77.8104L105.036 75.3807C104.695 73.4413 102.845 72.1464 100.906 72.4884Z" fill="#A259FF"/>
<g filter="url(#filter3_i_2001_1099)">
<path d="M168.678 75.0664H117.65C115.273 75.0664 113.345 76.994 113.345 79.3718V103.356C113.345 105.734 115.273 107.662 117.65 107.662H168.678C171.055 107.662 172.983 105.734 172.983 103.356V79.3718C172.983 76.994 171.055 75.0664 168.678 75.0664Z" fill="url(#paint10_linear_2001_1099)"/>
</g>
<path d="M125.939 96.3092C128.673 96.3092 130.889 94.0931 130.889 91.3594C130.889 88.6257 128.673 86.4097 125.939 86.4097C123.206 86.4097 120.99 88.6257 120.99 91.3594C120.99 94.0931 123.206 96.3092 125.939 96.3092Z" fill="white"/>
<path d="M143.628 96.3092C146.362 96.3092 148.578 94.0931 148.578 91.3594C148.578 88.6257 146.362 86.4097 143.628 86.4097C140.895 86.4097 138.678 88.6257 138.678 91.3594C138.678 94.0931 140.895 96.3092 143.628 96.3092Z" fill="white"/>
<path d="M161.317 96.3092C164.051 96.3092 166.266 94.0931 166.266 91.3594C166.266 88.6257 164.051 86.4097 161.317 86.4097C158.583 86.4097 156.367 88.6257 156.367 91.3594C156.367 94.0931 158.583 96.3092 161.317 96.3092Z" fill="white"/>
<path fill-rule="evenodd" clip-rule="evenodd" d="M116.639 161.245C117.066 158.818 119.38 157.199 121.806 157.626L147.295 162.121C150.777 162.735 153.925 164.352 156.156 166.689C158.386 169.024 159.897 172.343 159.249 176.019C158.601 179.695 156.045 182.298 153.152 183.731C150.257 185.165 146.745 185.611 143.261 184.997L82.6975 174.317C80.2714 173.89 78.6513 171.575 79.0791 169.15C79.5069 166.723 81.8205 165.103 84.2468 165.531L144.811 176.21C146.617 176.528 148.172 176.242 149.193 175.737C150.215 175.23 150.425 174.689 150.463 174.47C150.501 174.253 150.49 173.674 149.704 172.85C148.918 172.026 147.554 171.226 145.746 170.907L120.152 165.504C117.727 165.076 116.21 163.67 116.639 161.245Z" fill="url(#paint11_linear_2001_1099)"/>
<path fill-rule="evenodd" clip-rule="evenodd" d="M165.87 115.83C166.829 113.771 169.051 112.614 171.288 113.008L191.27 116.531C193.998 117.012 195.821 119.614 195.34 122.343C194.858 125.071 192.256 126.893 189.528 126.412L173.339 123.556L163.775 144.085C162.606 146.596 159.621 147.683 157.109 146.514C154.599 145.344 153.511 142.359 154.681 139.848L165.87 115.83Z" fill="url(#paint12_linear_2001_1099)"/>
<path d="M94.6484 192.088C100.559 193.131 106.196 189.183 107.238 183.273C108.28 177.362 104.333 171.726 98.4226 170.683C92.5119 169.641 86.8753 173.588 85.8331 179.498C84.7908 185.41 88.7376 191.045 94.6484 192.088Z" fill="url(#paint13_linear_2001_1099)"/>
<path d="M161.261 124.9L87.5078 111.896C81.9792 110.921 77.0687 114.89 77.4539 120.016L78.3749 149.93C78.6543 153.633 81.6762 156.757 85.6691 157.461L149.958 173.136L167.947 135.986C172.092 128.463 166.803 125.877 161.261 124.9Z" fill="url(#paint14_linear_2001_1099)"/>
<path d="M95.289 186.727C98.2585 187.25 101.09 185.267 101.614 182.298C102.137 179.329 100.155 176.497 97.1851 175.973C94.2156 175.449 91.3839 177.432 90.8602 180.402C90.3366 183.372 92.3195 186.203 95.289 186.727Z" fill="url(#paint15_linear_2001_1099)"/>
<mask id="mask0_2001_1099" style="mask-type:alpha" maskUnits="userSpaceOnUse" x="77" y="111" width="92" height="63">
<path d="M161.261 124.9L87.5074 111.896C81.9787 110.921 77.0682 114.89 77.4534 120.016L78.3744 149.93C78.6538 153.633 81.6757 156.757 85.6686 157.461L149.958 173.136L167.947 135.986C170.064 131.288 166.803 125.877 161.261 124.9Z" fill="url(#paint16_linear_2001_1099)"/>
</mask>
<g mask="url(#mask0_2001_1099)">
<path d="M125.576 144.625C125.896 142.931 127.529 141.813 129.224 142.126C130.918 142.439 132.032 144.066 131.712 145.759L127.49 168.089C127.17 169.782 125.537 170.901 123.843 170.588C122.149 170.275 121.034 168.648 121.354 166.955L125.576 144.625Z" fill="#A259FF"/>
<path d="M180.673 130.101C182.088 130.347 183.04 131.694 182.801 133.11L182.627 134.135C182.387 135.551 181.045 136.499 179.63 136.254L76.5073 118.343C75.0926 118.097 74.1403 116.75 74.3803 115.335L74.5541 114.31C74.794 112.894 76.1354 111.946 77.5501 112.191L180.673 130.101Z" fill="#A259FF"/>
<path d="M142.931 147.761C143.251 146.068 144.884 144.949 146.578 145.263C148.273 145.576 149.387 147.203 149.066 148.896L144.845 171.226C144.525 172.919 142.892 174.038 141.197 173.725C139.504 173.412 138.39 171.785 138.709 170.092L142.931 147.761Z" fill="#A259FF"/>
<path d="M108.224 141.488C108.543 139.795 110.177 138.676 111.87 138.989C113.565 139.302 114.679 140.929 114.359 142.622L110.138 164.953C109.818 166.646 108.185 167.764 106.49 167.452C104.796 167.138 103.682 165.512 104.002 163.819L108.224 141.488Z" fill="#A259FF"/>
<path d="M90.6705 138.394C90.9906 136.701 92.6236 135.582 94.3179 135.895C96.0122 136.208 97.1263 137.835 96.8062 139.528L92.5848 161.858C92.2648 163.551 90.6318 164.67 88.9374 164.358C87.2431 164.044 86.129 162.417 86.4491 160.724L90.6705 138.394Z" fill="#A259FF"/>
<path d="M75.4284 112.209C75.7525 110.371 77.5055 109.143 79.3438 109.467L169.47 125.359C171.308 125.683 172.536 127.437 172.211 129.275C171.887 131.113 170.134 132.341 168.296 132.016L78.17 116.124C76.3317 115.801 75.1043 114.047 75.4284 112.209Z" fill="url(#paint17_linear_2001_1099)"/>
</g>
</g>
<defs>
<filter id="filter0_f_2001_1099" x="8.09424" y="7.59424" width="247.493" height="247.493" filterUnits="userSpaceOnUse" color-interpolation-filters="sRGB">
<feFlood flood-opacity="0" result="BackgroundImageFix"/>
<feBlend mode="normal" in="SourceGraphic" in2="BackgroundImageFix" result="shape"/>
<feGaussianBlur stdDeviation="27" result="effect1_foregroundBlur_2001_1099"/>
</filter>
<filter id="filter1_f_2001_1099" x="41.6611" y="174.326" width="159.803" height="61.6121" filterUnits="userSpaceOnUse" color-interpolation-filters="sRGB">
<feFlood flood-opacity="0" result="BackgroundImageFix"/>
<feBlend mode="normal" in="SourceGraphic" in2="BackgroundImageFix" result="shape"/>
<feGaussianBlur stdDeviation="10.3437" result="effect1_foregroundBlur_2001_1099"/>
</filter>
<filter id="filter2_i_2001_1099" x="79.4388" y="59.7773" width="62.0678" height="78.8852" filterUnits="userSpaceOnUse" color-interpolation-filters="sRGB">
<feFlood flood-opacity="0" result="BackgroundImageFix"/>
<feBlend mode="normal" in="SourceGraphic" in2="BackgroundImageFix" result="shape"/>
<feColorMatrix in="SourceAlpha" type="matrix" values="0 0 0 0 0 0 0 0 0 0 0 0 0 0 0 0 0 0 127 0" result="hardAlpha"/>
<feOffset dx="2.38455" dy="5.56394"/>
<feGaussianBlur stdDeviation="5.96137"/>
<feComposite in2="hardAlpha" operator="arithmetic" k2="-1" k3="1"/>
<feColorMatrix type="matrix" values="0 0 0 0 0.104618 0 0 0 0 0.465612 0 0 0 0 0.545833 0 0 0 0.15 0"/>
<feBlend mode="normal" in2="shape" result="effect1_innerShadow_2001_1099"/>
</filter>
<filter id="filter3_i_2001_1099" x="113.345" y="75.0664" width="65.2635" height="36.3458" filterUnits="userSpaceOnUse" color-interpolation-filters="sRGB">
<feFlood flood-opacity="0" result="BackgroundImageFix"/>
<feBlend mode="normal" in="SourceGraphic" in2="BackgroundImageFix" result="shape"/>
<feColorMatrix in="SourceAlpha" type="matrix" values="0 0 0 0 0 0 0 0 0 0 0 0 0 0 0 0 0 0 127 0" result="hardAlpha"/>
<feOffset dx="5.62585" dy="3.75056"/>
<feGaussianBlur stdDeviation="6.09467"/>
<feComposite in2="hardAlpha" operator="arithmetic" k2="-1" k3="1"/>
<feColorMatrix type="matrix" values="0 0 0 0 0.104618 0 0 0 0 0.465612 0 0 0 0 0.545833 0 0 0 0.09 0"/>
<feBlend mode="normal" in2="shape" result="effect1_innerShadow_2001_1099"/>
</filter>
<linearGradient id="paint0_linear_2001_1099" x1="50.3944" y1="20.8335" x2="209.398" y2="53.9322" gradientUnits="userSpaceOnUse">
<stop stop-color="#A259FF"/>
<stop offset="1" stop-color="#3B3B3B"/>
</linearGradient>
<linearGradient id="paint1_linear_2001_1099" x1="161.732" y1="187.802" x2="115.215" y2="182.499" gradientUnits="userSpaceOnUse">
<stop stop-color="#A259FF" stop-opacity="0"/>
<stop offset="1" stop-color="#FF6250"/>
</linearGradient>
<linearGradient id="paint2_linear_2001_1099" x1="209.456" y1="73.4905" x2="222.798" y2="83.9702" gradientUnits="userSpaceOnUse">
<stop stop-color="#A259FF"/>
<stop offset="1" stop-color="#377DF7"/>
</linearGradient>
<linearGradient id="paint3_linear_2001_1099" x1="51.5839" y1="204.281" x2="51.1382" y2="217.556" gradientUnits="userSpaceOnUse">
<stop stop-color="#A259FF"/>
<stop offset="1" stop-color="#377DF7"/>
</linearGradient>
<linearGradient id="paint4_linear_2001_1099" x1="195.36" y1="181.393" x2="208.62" y2="180.632" gradientUnits="userSpaceOnUse">
<stop stop-color="#A259FF"/>
<stop offset="1" stop-color="#377DF7"/>
</linearGradient>
<radialGradient id="paint5_radial_2001_1099" cx="0" cy="0" r="1" gradientUnits="userSpaceOnUse" gradientTransform="translate(121.562 205.132) rotate(90) scale(10.1188 59.2142)">
<stop stop-color="#2B2B2B"/>
<stop offset="1" stop-color="#2B2B2B" stop-opacity="0"/>
</radialGradient>
<linearGradient id="paint6_linear_2001_1099" x1="86.598" y1="66.2332" x2="136.757" y2="64.6874" gradientUnits="userSpaceOnUse">
<stop stop-color="#A259FF"/>
<stop offset="1" stop-color="#3B3B3B"/>
</linearGradient>
<linearGradient id="paint7_linear_2001_1099" x1="118.771" y1="91.702" x2="115.478" y2="81.9423" gradientUnits="userSpaceOnUse">
<stop stop-color="#A259FF"/>
<stop offset="0.666667" stop-color="white"/>
</linearGradient>
<linearGradient id="paint8_linear_2001_1099" x1="123.357" y1="117.357" x2="120.197" y2="107.886" gradientUnits="userSpaceOnUse">
<stop stop-color="#A259FF"/>
<stop offset="0.666667" stop-color="white"/>
</linearGradient>
<linearGradient id="paint9_linear_2001_1099" x1="120.981" y1="103.887" x2="117.822" y2="94.416" gradientUnits="userSpaceOnUse">
<stop stop-color="#A259FF"/>
<stop offset="0.666667" stop-color="white"/>
</linearGradient>
<linearGradient id="paint10_linear_2001_1099" x1="113.345" y1="114.984" x2="150.044" y2="59.9061" gradientUnits="userSpaceOnUse">
<stop stop-color="#A259FF"/>
<stop offset="1" stop-color="#FF6250"/>
</linearGradient>
<linearGradient id="paint11_linear_2001_1099" x1="142.425" y1="178.176" x2="129.843" y2="119.127" gradientUnits="userSpaceOnUse">
<stop stop-color="#A259FF"/>
<stop offset="0.666667" stop-color="white"/>
</linearGradient>
<linearGradient id="paint12_linear_2001_1099" x1="184.359" y1="123.353" x2="213.399" y2="157.154" gradientUnits="userSpaceOnUse">
<stop stop-color="#A259FF"/>
<stop offset="1" stop-color="#377DF7"/>
</linearGradient>
<linearGradient id="paint13_linear_2001_1099" x1="102.094" y1="187.157" x2="77.2702" y2="161.795" gradientUnits="userSpaceOnUse">
<stop stop-color="#A259FF"/>
<stop offset="0.666667" stop-color="white"/>
</linearGradient>
<linearGradient id="paint14_linear_2001_1099" x1="145.722" y1="158.179" x2="95.8253" y2="58.7032" gradientUnits="userSpaceOnUse">
<stop stop-color="#A259FF"/>
<stop offset="0.666667" stop-color="white"/>
</linearGradient>
<linearGradient id="paint15_linear_2001_1099" x1="90.0636" y1="183.032" x2="105.556" y2="186.017" gradientUnits="userSpaceOnUse">
<stop stop-color="white"/>
<stop offset="1" stop-color="#BCF3FF"/>
</linearGradient>
<linearGradient id="paint16_linear_2001_1099" x1="76.8052" y1="121.766" x2="168.149" y2="139" gradientUnits="userSpaceOnUse">
<stop stop-color="#AFF1FF"/>
<stop offset="1" stop-color="#65C8DE"/>
</linearGradient>
<linearGradient id="paint17_linear_2001_1099" x1="152.401" y1="127.272" x2="153.886" y2="108.464" gradientUnits="userSpaceOnUse">
<stop stop-color="#A259FF"/>
<stop offset="0.666667" stop-color="white"/>
</linearGradient>
<clipPath id="clip0_2001_1099">
<rect width="250" height="250" fill="white" transform="translate(0.5)"/>
</clipPath>
</defs>
</svg>
