<svg width="251" height="250" viewBox="0 0 251 250" fill="none" xmlns="http://www.w3.org/2000/svg">
<g clip-path="url(#clip0_2001_1072)">
<path d="M125.5 229.167C183.03 229.167 229.667 182.53 229.667 125C229.667 67.4705 183.03 20.8335 125.5 20.8335C67.9703 20.8335 21.3334 67.4705 21.3334 125C21.3334 182.53 67.9703 229.167 125.5 229.167Z" fill="url(#paint0_linear_2001_1072)"/>
<g filter="url(#filter0_f_2001_1072)">
<path d="M125.5 201.087C167.522 201.087 201.587 167.022 201.587 125C201.587 82.9784 167.522 48.9131 125.5 48.9131C83.4784 48.9131 49.4131 82.9784 49.4131 125C49.4131 167.022 83.4784 201.087 125.5 201.087Z" fill="url(#paint1_linear_2001_1072)"/>
</g>
<path fill-rule="evenodd" clip-rule="evenodd" d="M75.7684 46.7211C77.5112 46.7211 78.924 45.3083 78.924 43.5656C78.924 41.8229 77.5112 40.4101 75.7684 40.4101C74.0258 40.4101 72.613 41.8229 72.613 43.5656C72.613 45.3083 74.0258 46.7211 75.7684 46.7211ZM75.7684 49.0877C78.8183 49.0877 81.2906 46.6154 81.2906 43.5656C81.2906 40.5158 78.8183 38.0435 75.7684 38.0435C72.7187 38.0435 70.2463 40.5158 70.2463 43.5656C70.2463 46.6154 72.7187 49.0877 75.7684 49.0877Z" fill="white"/>
<path fill-rule="evenodd" clip-rule="evenodd" d="M46.783 179.873C48.5257 179.873 49.9385 178.46 49.9385 176.718C49.9385 174.975 48.5257 173.563 46.783 173.563C45.0403 173.563 43.6275 174.975 43.6275 176.718C43.6275 178.46 45.0403 179.873 46.783 179.873ZM46.783 182.24C49.8328 182.24 52.3052 179.767 52.3052 176.718C52.3052 173.668 49.8328 171.196 46.783 171.196C43.7332 171.196 41.2609 173.668 41.2609 176.718C41.2609 179.767 43.7332 182.24 46.783 182.24Z" fill="white"/>
<path fill-rule="evenodd" clip-rule="evenodd" d="M205.297 91.1053C207.04 91.1053 208.453 89.6926 208.453 87.9498C208.453 86.2072 207.04 84.7944 205.297 84.7944C203.554 84.7944 202.142 86.2072 202.142 87.9498C202.142 89.6926 203.554 91.1053 205.297 91.1053ZM205.297 93.4721C208.347 93.4721 210.82 90.9993 210.82 87.9498C210.82 84.9001 208.347 82.4277 205.297 82.4277C202.247 82.4277 199.775 84.9001 199.775 87.9498C199.775 90.9993 202.247 93.4721 205.297 93.4721Z" fill="white"/>
<path d="M39.8034 47.2724C40.0355 46.3109 41.4031 46.3109 41.6352 47.2724L42.4164 50.5084C42.4993 50.852 42.7676 51.1203 43.1112 51.2033L46.3473 51.9844C47.3088 52.2165 47.3088 53.5842 46.3473 53.8162L43.1112 54.5974C42.7676 54.6804 42.4993 54.9486 42.4164 55.2922L41.6352 58.5283C41.4031 59.4898 40.0355 59.4898 39.8034 58.5283L39.0223 55.2922C38.9393 54.9486 38.6711 54.6804 38.3274 54.5974L35.0914 53.8162C34.1299 53.5842 34.1299 52.2165 35.0914 51.9844L38.3274 51.2033C38.6711 51.1203 38.9393 50.852 39.0223 50.5084L39.8034 47.2724Z" fill="white"/>
<path d="M208.194 46.7313C208.448 45.6774 209.947 45.6774 210.201 46.7313L211.058 50.2784C211.149 50.6551 211.443 50.9492 211.819 51.0401L215.366 51.8964C216.42 52.1507 216.42 53.6498 215.366 53.9043L211.819 54.7605C211.443 54.8514 211.149 55.1455 211.058 55.5221L210.201 59.0693C209.947 60.1232 208.448 60.1232 208.194 59.0693L207.337 55.5221C207.246 55.1455 206.952 54.8514 206.575 54.7605L203.028 53.9043C201.975 53.6498 201.975 52.1507 203.028 51.8964L206.575 51.0401C206.952 50.9492 207.246 50.6551 207.337 50.2784L208.194 46.7313Z" fill="url(#paint2_linear_2001_1072)"/>
<path d="M50.3469 200.396C51.5461 200.204 52.5036 201.381 52.0702 202.516L49.1454 210.175C48.7121 211.31 47.213 211.55 46.4471 210.607L41.2769 204.244C40.5108 203.302 41.0525 201.884 42.2518 201.692L50.3469 200.396Z" fill="url(#paint3_linear_2001_1072)"/>
<path d="M194.321 179.354C194.021 178.177 195.107 177.117 196.276 177.445L204.169 179.663C205.338 179.992 205.714 181.463 204.844 182.311L198.977 188.037C198.108 188.886 196.647 188.475 196.346 187.298L194.321 179.354Z" fill="url(#paint4_linear_2001_1072)"/>
<path d="M165.816 139.369L95.4837 113.77C90.0923 111.808 84.1312 114.588 82.1689 119.979L65.5659 165.595C63.6037 170.986 66.3834 176.947 71.7746 178.909L142.108 204.509C147.499 206.471 153.46 203.691 155.422 198.3L172.025 152.684C173.987 147.292 171.207 141.331 165.816 139.369Z" fill="url(#paint5_linear_2001_1072)"/>
<path d="M162.961 153.498L183.737 123.572C187.009 118.859 185.841 112.386 181.129 109.114L151.202 88.3377C146.489 85.0658 140.016 86.234 136.745 90.9466L115.968 120.873C112.697 125.586 113.864 132.059 118.577 135.331L148.504 156.107C153.216 159.379 159.689 158.21 162.961 153.498Z" fill="url(#paint6_linear_2001_1072)"/>
<path d="M139.308 129.681C138.037 131.433 135.595 131.82 133.843 130.549C132.091 129.278 131.705 126.836 132.976 125.084C134.247 123.332 136.689 122.945 138.441 124.216C140.192 125.488 140.58 127.93 139.308 129.681Z" fill="url(#paint7_linear_2001_1072)"/>
<path d="M150.87 113.727L148.452 111.974L136.908 127.893L139.325 129.647L150.87 113.727Z" fill="url(#paint8_linear_2001_1072)"/>
<path d="M152.893 132.506C151.621 134.258 149.179 134.646 147.429 133.374C145.677 132.103 145.289 129.661 146.561 127.909C147.832 126.157 150.274 125.77 152.025 127.041C153.777 128.313 154.165 130.755 152.893 132.506Z" fill="url(#paint9_linear_2001_1072)"/>
<path d="M164.477 116.543L162.06 114.791L150.517 130.712L152.936 132.464L164.477 116.543Z" fill="url(#paint10_linear_2001_1072)"/>
<path d="M164.447 116.584L146.916 114.103L148.456 111.971L165.984 114.461L164.447 116.584Z" fill="url(#paint11_linear_2001_1072)"/>
<path d="M161.536 120.595L144.005 118.113L145.544 115.982L163.081 118.475L161.536 120.595Z" fill="url(#paint12_linear_2001_1072)"/>
<path d="M147.576 87.2556L141.492 59.0673C140.282 53.4592 134.754 49.8942 129.146 51.1047L92.2853 59.0607C86.6775 60.2711 83.1126 65.7986 84.3231 71.4067L90.4073 99.595C91.6177 105.203 97.1449 108.768 102.754 107.558L139.613 99.6013C145.222 98.3912 148.786 92.864 147.576 87.2556Z" fill="url(#paint13_linear_2001_1072)"/>
<path d="M147.096 84.3584L126.434 67.7686L118.446 83.517L110.031 78.6657L98.3968 94.8606L89.6704 96.741L90.0859 98.6939C91.4883 105.177 97.8768 109.301 104.36 107.898L138.297 100.574C144.78 99.1722 148.904 92.7836 147.501 86.3011L147.086 84.3584H147.096Z" fill="url(#paint14_linear_2001_1072)"/>
<path opacity="0.9" d="M98.1884 76.7851C101.419 76.7019 103.507 73.4608 102.25 70.4898C101.543 68.8278 99.8505 67.737 98.0425 67.7785C94.8125 67.8616 92.7237 71.1028 93.981 74.0738C94.6875 75.7358 96.3804 76.8266 98.1884 76.7851Z" fill="white"/>
<path d="M154.334 196.63C152.897 202.673 146.512 206.112 140.675 203.987L70.4729 178.436C65.5169 176.632 62.6992 171.401 63.9197 166.27L73.8889 124.364C75.3265 118.321 81.7109 114.881 87.548 117.006L157.75 142.558C162.706 144.362 165.524 149.593 164.303 154.724L154.334 196.63Z" fill="url(#paint15_linear_2001_1072)"/>
</g>
<defs>
<filter id="filter0_f_2001_1072" x="-4.58691" y="-5.08691" width="260.174" height="260.174" filterUnits="userSpaceOnUse" color-interpolation-filters="sRGB">
<feFlood flood-opacity="0" result="BackgroundImageFix"/>
<feBlend mode="normal" in="SourceGraphic" in2="BackgroundImageFix" result="shape"/>
<feGaussianBlur stdDeviation="27" result="effect1_foregroundBlur_2001_1072"/>
</filter>
<linearGradient id="paint0_linear_2001_1072" x1="50.3944" y1="20.8335" x2="209.398" y2="53.9322" gradientUnits="userSpaceOnUse">
<stop stop-color="#A259FF"/>
<stop offset="1" stop-color="#3B3B3B"/>
</linearGradient>
<linearGradient id="paint1_linear_2001_1072" x1="213.362" y1="137.681" x2="156.745" y2="235.275" gradientUnits="userSpaceOnUse">
<stop stop-color="#A259FF" stop-opacity="0"/>
<stop offset="1" stop-color="#FF6250"/>
</linearGradient>
<linearGradient id="paint2_linear_2001_1072" x1="212.173" y1="49.034" x2="225.515" y2="59.5137" gradientUnits="userSpaceOnUse">
<stop stop-color="#A259FF"/>
<stop offset="1" stop-color="#377DF7"/>
</linearGradient>
<linearGradient id="paint3_linear_2001_1072" x1="51.5836" y1="204.28" x2="51.1379" y2="217.555" gradientUnits="userSpaceOnUse">
<stop stop-color="#A259FF"/>
<stop offset="1" stop-color="#377DF7"/>
</linearGradient>
<linearGradient id="paint4_linear_2001_1072" x1="198.077" y1="177.77" x2="211.338" y2="177.009" gradientUnits="userSpaceOnUse">
<stop stop-color="#A259FF"/>
<stop offset="1" stop-color="#377DF7"/>
</linearGradient>
<linearGradient id="paint5_linear_2001_1072" x1="144.592" y1="148.037" x2="183.392" y2="240.768" gradientUnits="userSpaceOnUse">
<stop stop-color="#A259FF"/>
<stop offset="0.416667" stop-color="#A259FF" stop-opacity="0"/>
</linearGradient>
<linearGradient id="paint6_linear_2001_1072" x1="155.931" y1="141.332" x2="89.2769" y2="161.814" gradientUnits="userSpaceOnUse">
<stop stop-color="#FF7262"/>
<stop offset="0.317708" stop-color="#A259FF"/>
</linearGradient>
<linearGradient id="paint7_linear_2001_1072" x1="145.453" y1="111.552" x2="152.841" y2="127.113" gradientUnits="userSpaceOnUse">
<stop stop-color="#3B3B3B"/>
<stop offset="1" stop-color="#A259FF"/>
</linearGradient>
<linearGradient id="paint8_linear_2001_1072" x1="171.551" y1="84.8332" x2="178.064" y2="91.2273" gradientUnits="userSpaceOnUse">
<stop stop-color="#3B3B3B"/>
<stop offset="1" stop-color="#A259FF"/>
</linearGradient>
<linearGradient id="paint9_linear_2001_1072" x1="159.038" y1="114.378" x2="166.425" y2="129.938" gradientUnits="userSpaceOnUse">
<stop stop-color="#3B3B3B"/>
<stop offset="1" stop-color="#A259FF"/>
</linearGradient>
<linearGradient id="paint10_linear_2001_1072" x1="185.154" y1="87.6455" x2="191.668" y2="94.0387" gradientUnits="userSpaceOnUse">
<stop stop-color="#3B3B3B"/>
<stop offset="1" stop-color="#A259FF"/>
</linearGradient>
<linearGradient id="paint11_linear_2001_1072" x1="168.553" y1="103.503" x2="168.286" y2="121.807" gradientUnits="userSpaceOnUse">
<stop stop-color="#3B3B3B"/>
<stop offset="1" stop-color="#A259FF"/>
</linearGradient>
<linearGradient id="paint12_linear_2001_1072" x1="165.649" y1="107.516" x2="165.38" y2="125.821" gradientUnits="userSpaceOnUse">
<stop stop-color="#3B3B3B"/>
<stop offset="1" stop-color="#A259FF"/>
</linearGradient>
<linearGradient id="paint13_linear_2001_1072" x1="124.204" y1="58.7817" x2="135.966" y2="97.2281" gradientUnits="userSpaceOnUse">
<stop stop-color="#FF7262"/>
<stop offset="1" stop-color="#A259FF"/>
</linearGradient>
<linearGradient id="paint14_linear_2001_1072" x1="115.893" y1="123.189" x2="103.116" y2="75.9934" gradientUnits="userSpaceOnUse">
<stop stop-color="#A259FF"/>
<stop offset="1" stop-color="white"/>
</linearGradient>
<linearGradient id="paint15_linear_2001_1072" x1="137.515" y1="183.7" x2="88.6551" y2="59.3854" gradientUnits="userSpaceOnUse">
<stop stop-color="#A259FF"/>
<stop offset="0.666667" stop-color="white"/>
</linearGradient>
<clipPath id="clip0_2001_1072">
<rect width="250" height="250" fill="white" transform="translate(0.5)"/>
</clipPath>
</defs>
</svg>
