<svg width="33" height="32" viewBox="0 0 33 32" fill="none" xmlns="http://www.w3.org/2000/svg">
<path d="M12.7931 19.5C13.6215 19.5 14.2931 18.8284 14.2931 18C14.2931 17.1716 13.6215 16.5 12.7931 16.5C11.9647 16.5 11.2931 17.1716 11.2931 18C11.2931 18.8284 11.9647 19.5 12.7931 19.5Z" fill="#858584"/>
<path d="M20.7931 19.5C21.6215 19.5 22.2931 18.8284 22.2931 18C22.2931 17.1716 21.6215 16.5 20.7931 16.5C19.9647 16.5 19.2931 17.1716 19.2931 18C19.2931 18.8284 19.9647 19.5 20.7931 19.5Z" fill="#858584"/>
<path fill-rule="evenodd" clip-rule="evenodd" d="M16.7858 9.99959C14.618 9.98356 12.4609 10.3055 10.3922 10.9539C9.86522 11.119 9.3041 10.8257 9.13893 10.2987C8.97376 9.77168 9.26709 9.21056 9.7941 9.04539C12.0587 8.33563 14.42 7.98281 16.7932 7.99959C19.1663 7.98281 21.5276 8.33563 23.7922 9.04539C24.3192 9.21056 24.6126 9.77168 24.4474 10.2987C24.2822 10.8257 23.7211 11.119 23.1941 10.9539C21.1254 10.3055 18.9684 9.98356 16.8006 9.99959H16.7858Z" fill="#858584"/>
<path fill-rule="evenodd" clip-rule="evenodd" d="M9.13893 21.7012C9.3041 21.1742 9.86522 20.8809 10.3922 21.046C12.4609 21.6944 14.618 22.0163 16.7858 22.0003H16.8006C18.9684 22.0163 21.1254 21.6944 23.1941 21.046C23.7211 20.8809 24.2822 21.1742 24.4474 21.7012C24.6126 22.2282 24.3192 22.7893 23.7922 22.9545C21.5276 23.6643 19.1663 24.0171 16.7932 24.0003C14.42 24.0171 12.0587 23.6643 9.7941 22.9545C9.26709 22.7893 8.97376 22.2282 9.13893 21.7012Z" fill="#858584"/>
<path fill-rule="evenodd" clip-rule="evenodd" d="M21.013 4.81121C21.4435 4.56852 21.9482 4.49267 22.4309 4.59812C23.7485 4.88366 25.0384 5.28424 26.2859 5.79524C26.5667 5.90352 26.819 6.07496 27.023 6.29638C27.2293 6.52018 27.3806 6.78885 27.4651 7.08115L31.7009 21.2255C31.8114 21.594 31.814 21.9865 31.7083 22.3563C31.6026 22.7262 31.3931 23.0581 31.1047 23.3126L31.0995 23.3171C29.032 25.1161 26.2307 26.4777 23.0487 27.2577C22.6067 27.3703 22.1393 27.3265 21.7258 27.1336C21.314 26.9414 20.9813 26.6132 20.7834 26.2044L19.2751 23.2129C19.0265 22.7197 19.2247 22.1184 19.7179 21.8698C20.211 21.6211 20.8124 21.8194 21.061 22.3125L22.5735 25.3125L22.5746 25.3147C25.5125 24.5943 28.0066 23.3571 29.7866 21.8083L30.4431 22.5627L29.7815 21.8128C29.7833 21.8113 29.7846 21.8092 29.7852 21.8069C29.7859 21.8046 29.7859 21.8022 29.7852 21.7999L25.5491 7.65465C25.5456 7.65325 25.542 7.65182 25.5385 7.65037C24.3956 7.18149 23.2136 6.81412 22.0063 6.55253L22.0041 6.55205C22.0011 6.55139 21.998 6.55186 21.9953 6.55337C21.9929 6.55473 21.991 6.55684 21.99 6.55937L21.005 9.53905C20.8317 10.0634 20.2661 10.348 19.7417 10.1747C19.2173 10.0013 18.9328 9.43574 19.1061 8.91136L20.0965 5.91516C20.256 5.44707 20.5823 5.0541 21.013 4.81121Z" fill="#858584"/>
<path fill-rule="evenodd" clip-rule="evenodd" d="M11.5908 6.55337C11.5881 6.55186 11.585 6.55139 11.582 6.55205L11.5798 6.55252C10.3725 6.81412 9.19052 7.18148 8.04762 7.65037C8.04409 7.65182 8.04055 7.65324 8.03701 7.65465L3.80103 21.7996C3.80034 21.8019 3.80024 21.8046 3.8009 21.8069C3.80149 21.809 3.8026 21.8108 3.80412 21.8123C5.58381 23.3593 8.0762 24.5949 11.0115 25.3147L11.0126 25.3125L12.5251 22.3125C12.7738 21.8194 13.3751 21.6211 13.8682 21.8698C14.3614 22.1184 14.5596 22.7197 14.311 23.2129L12.8027 26.2045C12.6049 26.6132 12.2721 26.9414 11.8603 27.1336C11.4468 27.3265 10.9794 27.3703 10.5374 27.2577C7.35548 26.4777 4.55411 25.1161 2.48664 23.3171L2.48146 23.3126C2.19299 23.0581 1.98353 22.7262 1.87785 22.3563C1.77219 21.9865 1.77471 21.5942 1.88509 21.2258C1.88507 21.2259 1.88512 21.2257 1.88509 21.2258L6.12099 7.08117C6.20552 6.78887 6.35686 6.52019 6.56312 6.29638C6.76718 6.07496 7.01939 5.90352 7.3002 5.79524C8.54806 5.28409 9.83838 4.88344 11.1563 4.59788C11.6387 4.49279 12.143 4.5687 12.5731 4.81121C13.0039 5.05409 13.3301 5.44708 13.4896 5.91518L13.4926 5.92385L14.48 8.91136C14.6534 9.43574 14.3688 10.0013 13.8444 10.1747C13.32 10.348 12.7544 10.0634 12.5811 9.53905L11.5962 6.55937C11.5951 6.55684 11.5932 6.55473 11.5908 6.55337Z" fill="#858584"/>
<path d="M12.7931 19.5C13.6215 19.5 14.2931 18.8284 14.2931 18C14.2931 17.1716 13.6215 16.5 12.7931 16.5C11.9647 16.5 11.2931 17.1716 11.2931 18C11.2931 18.8284 11.9647 19.5 12.7931 19.5Z" fill="#858584"/>
<path d="M20.7931 19.5C21.6215 19.5 22.2931 18.8284 22.2931 18C22.2931 17.1716 21.6215 16.5 20.7931 16.5C19.9647 16.5 19.2931 17.1716 19.2931 18C19.2931 18.8284 19.9647 19.5 20.7931 19.5Z" fill="#858584"/>
<path fill-rule="evenodd" clip-rule="evenodd" d="M16.7858 9.99959C14.618 9.98356 12.4609 10.3055 10.3922 10.9539C9.86522 11.119 9.3041 10.8257 9.13893 10.2987C8.97376 9.77168 9.26709 9.21056 9.7941 9.04539C12.0587 8.33563 14.42 7.98281 16.7932 7.99959C19.1663 7.98281 21.5276 8.33563 23.7922 9.04539C24.3192 9.21056 24.6126 9.77168 24.4474 10.2987C24.2822 10.8257 23.7211 11.119 23.1941 10.9539C21.1254 10.3055 18.9684 9.98356 16.8006 9.99959H16.7858Z" fill="#858584"/>
<path fill-rule="evenodd" clip-rule="evenodd" d="M9.13893 21.7012C9.3041 21.1742 9.86522 20.8809 10.3922 21.046C12.4609 21.6944 14.618 22.0163 16.7858 22.0003H16.8006C18.9684 22.0163 21.1254 21.6944 23.1941 21.046C23.7211 20.8809 24.2822 21.1742 24.4474 21.7012C24.6126 22.2282 24.3192 22.7893 23.7922 22.9545C21.5276 23.6643 19.1663 24.0171 16.7932 24.0003C14.42 24.0171 12.0587 23.6643 9.7941 22.9545C9.26709 22.7893 8.97376 22.2282 9.13893 21.7012Z" fill="#858584"/>
<path fill-rule="evenodd" clip-rule="evenodd" d="M21.013 4.81121C21.4435 4.56852 21.9482 4.49267 22.4309 4.59812C23.7485 4.88366 25.0384 5.28424 26.2859 5.79524C26.5667 5.90352 26.819 6.07496 27.023 6.29638C27.2293 6.52018 27.3806 6.78885 27.4651 7.08115L31.7009 21.2255C31.8114 21.594 31.814 21.9865 31.7083 22.3563C31.6026 22.7262 31.3931 23.0581 31.1047 23.3126L31.0995 23.3171C29.032 25.1161 26.2307 26.4777 23.0487 27.2577C22.6067 27.3703 22.1393 27.3265 21.7258 27.1336C21.314 26.9414 20.9813 26.6132 20.7834 26.2044L19.2751 23.2129C19.0265 22.7197 19.2247 22.1184 19.7179 21.8698C20.211 21.6211 20.8124 21.8194 21.061 22.3125L22.5735 25.3125L22.5746 25.3147C25.5125 24.5943 28.0066 23.3571 29.7866 21.8083L30.4431 22.5627L29.7815 21.8128C29.7833 21.8113 29.7846 21.8092 29.7852 21.8069C29.7859 21.8046 29.7859 21.8022 29.7852 21.7999L25.5491 7.65465C25.5456 7.65325 25.542 7.65182 25.5385 7.65037C24.3956 7.18149 23.2136 6.81412 22.0063 6.55253L22.0041 6.55205C22.0011 6.55139 21.998 6.55186 21.9953 6.55337C21.9929 6.55473 21.991 6.55684 21.99 6.55937L21.005 9.53905C20.8317 10.0634 20.2661 10.348 19.7417 10.1747C19.2173 10.0013 18.9328 9.43574 19.1061 8.91136L20.0965 5.91516C20.256 5.44707 20.5823 5.0541 21.013 4.81121Z" fill="#858584"/>
<path fill-rule="evenodd" clip-rule="evenodd" d="M11.5908 6.55337C11.5881 6.55186 11.585 6.55139 11.582 6.55205L11.5798 6.55252C10.3725 6.81412 9.19052 7.18148 8.04762 7.65037C8.04409 7.65182 8.04055 7.65324 8.03701 7.65465L3.80103 21.7996C3.80034 21.8019 3.80024 21.8046 3.8009 21.8069C3.80149 21.809 3.8026 21.8108 3.80412 21.8123C5.58381 23.3593 8.0762 24.5949 11.0115 25.3147L11.0126 25.3125L12.5251 22.3125C12.7738 21.8194 13.3751 21.6211 13.8682 21.8698C14.3614 22.1184 14.5596 22.7197 14.311 23.2129L12.8027 26.2045C12.6049 26.6132 12.2721 26.9414 11.8603 27.1336C11.4468 27.3265 10.9794 27.3703 10.5374 27.2577C7.35548 26.4777 4.55411 25.1161 2.48664 23.3171L2.48146 23.3126C2.19299 23.0581 1.98353 22.7262 1.87785 22.3563C1.77219 21.9865 1.77471 21.5942 1.88509 21.2258C1.88507 21.2259 1.88512 21.2257 1.88509 21.2258L6.12099 7.08117C6.20552 6.78887 6.35686 6.52019 6.56312 6.29638C6.76718 6.07496 7.01939 5.90352 7.3002 5.79524C8.54806 5.28409 9.83838 4.88344 11.1563 4.59788C11.6387 4.49279 12.143 4.5687 12.5731 4.81121C13.0039 5.05409 13.3301 5.44708 13.4896 5.91518L13.4926 5.92385L14.48 8.91136C14.6534 9.43574 14.3688 10.0013 13.8444 10.1747C13.32 10.348 12.7544 10.0634 12.5811 9.53905L11.5962 6.55937C11.5951 6.55684 11.5932 6.55473 11.5908 6.55337Z" fill="#858584"/>
</svg>
