<svg width="33" height="32" viewBox="0 0 33 32" fill="none" xmlns="http://www.w3.org/2000/svg">
<path fill-rule="evenodd" clip-rule="evenodd" d="M16.7931 12C14.584 12 12.7931 13.7909 12.7931 16C12.7931 18.2091 14.584 20 16.7931 20C19.0022 20 20.7931 18.2091 20.7931 16C20.7931 13.7909 19.0022 12 16.7931 12ZM10.7931 16C10.7931 12.6863 13.4794 10 16.7931 10C20.1068 10 22.7931 12.6863 22.7931 16C22.7931 19.3137 20.1068 22 16.7931 22C13.4794 22 10.7931 19.3137 10.7931 16Z" fill="#858584"/>
<path fill-rule="evenodd" clip-rule="evenodd" d="M11.2931 5.5C8.53167 5.5 6.29309 7.73858 6.29309 10.5V21.5C6.29309 24.2614 8.53167 26.5 11.2931 26.5H22.2931C25.0545 26.5 27.2931 24.2614 27.2931 21.5V10.5C27.2931 7.73858 25.0545 5.5 22.2931 5.5H11.2931ZM4.29309 10.5C4.29309 6.63401 7.4271 3.5 11.2931 3.5H22.2931C26.1591 3.5 29.2931 6.63401 29.2931 10.5V21.5C29.2931 25.366 26.1591 28.5 22.2931 28.5H11.2931C7.4271 28.5 4.29309 25.366 4.29309 21.5V10.5Z" fill="#858584"/>
<path d="M23.2931 11C24.1215 11 24.7931 10.3284 24.7931 9.5C24.7931 8.67157 24.1215 8 23.2931 8C22.4647 8 21.7931 8.67157 21.7931 9.5C21.7931 10.3284 22.4647 11 23.2931 11Z" fill="#858584"/>
</svg>
