<svg width="21" height="20" viewBox="0 0 21 20" fill="none" xmlns="http://www.w3.org/2000/svg">
<path fill-rule="evenodd" clip-rule="evenodd" d="M6.67053 12.4491C6.78055 12.7763 6.60451 13.1307 6.27734 13.2408C5.21792 13.597 4.65489 14.4864 4.35373 15.3908C4.23414 15.7499 4.16189 16.0956 4.11848 16.3814C4.40434 16.338 4.75006 16.2658 5.10917 16.1462C6.01355 15.845 6.9029 15.282 7.25916 14.2226C7.36918 13.8954 7.7236 13.7194 8.05078 13.8294C8.37795 13.9394 8.55399 14.2938 8.44396 14.621C7.9096 16.21 6.58801 16.9712 5.50411 17.3322C4.95655 17.5145 4.44395 17.6045 4.0698 17.6494C3.88182 17.672 3.72641 17.6834 3.616 17.6892C3.56074 17.6921 3.51658 17.6936 3.48505 17.6944C3.46928 17.6948 3.45666 17.695 3.44737 17.6951L3.43596 17.6952L3.43217 17.6952L3.43077 17.6952L3.43019 17.6952C3.42993 17.6952 3.42969 17.6952 3.42969 17.0702C2.80469 17.0702 2.80469 17.07 2.80469 17.0697L2.80469 17.0692L2.80469 17.0678L2.80471 17.064L2.80481 17.0526C2.80493 17.0433 2.80514 17.0306 2.80553 17.0149C2.80631 16.9833 2.80782 16.9392 2.81072 16.8839C2.81653 16.7735 2.82797 16.6181 2.85052 16.4301C2.8954 16.056 2.98542 15.5434 3.16776 14.9958C3.5287 13.9119 4.28989 12.5903 5.87891 12.056C6.20608 11.9459 6.5605 12.122 6.67053 12.4491ZM3.42969 17.0702H2.80469C2.80469 17.4154 3.08451 17.6952 3.42969 17.6952V17.0702Z" fill="white"/>
<path fill-rule="evenodd" clip-rule="evenodd" d="M17.0462 3.45406C16.3207 3.34943 14.535 3.31002 12.7075 5.13753L7.84476 10.0003L10.4999 12.6555L15.3627 7.79271C17.1902 5.9652 17.1508 4.17951 17.0462 3.45406ZM17.2274 2.21727C16.2297 2.07282 14.0057 2.07157 11.8236 4.25365L6.51893 9.55834C6.40172 9.67555 6.33588 9.83452 6.33588 10.0003C6.33588 10.166 6.40172 10.325 6.51893 10.4422L10.058 13.9813C10.3021 14.2254 10.6978 14.2254 10.9419 13.9813L16.2466 8.67659C18.4286 6.49452 18.4274 4.27052 18.2829 3.27282C18.2464 3.0058 18.1234 2.75803 17.9328 2.5674C17.7422 2.37678 17.4944 2.25382 17.2274 2.21727Z" fill="white"/>
<path fill-rule="evenodd" clip-rule="evenodd" d="M14.9219 8.49243C15.2671 8.49243 15.5469 8.77225 15.5469 9.11743V14.1643L15.5468 14.1732C15.5421 14.5015 15.4085 14.8147 15.1749 15.0452L12.6526 17.5753C12.4925 17.7352 12.292 17.8486 12.0724 17.9035C11.8529 17.9584 11.6225 17.9527 11.406 17.8869C11.1895 17.8212 10.9948 17.6978 10.8429 17.5301C10.6911 17.3625 10.5875 17.1569 10.5433 16.9351C10.5433 16.935 10.5434 16.9353 10.5433 16.9351L9.88719 13.6622C9.81934 13.3237 10.0387 12.9944 10.3771 12.9265C10.7156 12.8587 11.045 13.078 11.1128 13.4165L11.7692 16.6909L14.2969 14.1554V9.11743C14.2969 8.77225 14.5767 8.49243 14.9219 8.49243Z" fill="white"/>
<path fill-rule="evenodd" clip-rule="evenodd" d="M6.32698 4.95319L6.33588 4.95312H11.3828C11.7279 4.95312 12.0078 5.23295 12.0078 5.57812C12.0078 5.9233 11.7279 6.20312 11.3828 6.20312H6.34472L6.33967 6.20828L6.33964 6.20825L3.80933 8.73075L3.8103 8.73094L7.08373 9.38719C7.42218 9.45504 7.64154 9.78441 7.57369 10.1229C7.50584 10.4613 7.17647 10.6807 6.83803 10.6128L3.56556 9.95675C3.56537 9.95671 3.56518 9.95668 3.565 9.95664C3.34325 9.91244 3.13764 9.80892 2.97006 9.65711C2.80235 9.50516 2.67903 9.31054 2.61327 9.094C2.54751 8.87746 2.54176 8.64712 2.59665 8.42757C2.65154 8.20802 2.765 8.00749 2.92493 7.84738L2.92587 7.84644L2.92587 7.84644L5.45498 5.32514C5.68549 5.09151 5.99869 4.95786 6.32698 4.95319Z" fill="white"/>
</svg>
