<svg width="33" height="32" viewBox="0 0 33 32" fill="none" xmlns="http://www.w3.org/2000/svg">
<path fill-rule="evenodd" clip-rule="evenodd" d="M6.79309 12.4502C7.34538 12.4502 7.79309 12.8979 7.79309 13.4502V26.0002H25.7931V13.4502C25.7931 12.8979 26.2408 12.4502 26.7931 12.4502C27.3454 12.4502 27.7931 12.8979 27.7931 13.4502V26.0002C27.7931 26.5306 27.5824 27.0393 27.2073 27.4144C26.8322 27.7895 26.3235 28.0002 25.7931 28.0002H7.79309C7.26266 28.0002 6.75395 27.7895 6.37888 27.4144C6.0038 27.0393 5.79309 26.5306 5.79309 26.0002V13.4502C5.79309 12.8979 6.24081 12.4502 6.79309 12.4502Z" fill="#A259FF"/>
<path fill-rule="evenodd" clip-rule="evenodd" d="M3.79309 5C3.79309 4.44772 4.24081 4 4.79309 4H28.7931C29.3454 4 29.7931 4.44772 29.7931 5C29.7931 5.55228 29.3454 6 28.7931 6H4.79309C4.24081 6 3.79309 5.55228 3.79309 5Z" fill="#A259FF"/>
<path fill-rule="evenodd" clip-rule="evenodd" d="M4.79309 7C5.34538 7 5.79309 7.44772 5.79309 8V10C5.79309 10.7956 6.10916 11.5587 6.67177 12.1213C7.23438 12.6839 7.99744 13 8.79309 13C9.58874 13 10.3518 12.6839 10.9144 12.1213C11.477 11.5587 11.7931 10.7956 11.7931 10V8C11.7931 7.44772 12.2408 7 12.7931 7C13.3454 7 13.7931 7.44772 13.7931 8V10C13.7931 11.3261 13.2663 12.5979 12.3286 13.5355C11.3909 14.4732 10.1192 15 8.79309 15C7.46701 15 6.19524 14.4732 5.25756 13.5355C4.31987 12.5979 3.79309 11.3261 3.79309 10V8C3.79309 7.44772 4.24081 7 4.79309 7Z" fill="#A259FF"/>
<path fill-rule="evenodd" clip-rule="evenodd" d="M12.7931 7C13.3454 7 13.7931 7.44772 13.7931 8V10C13.7931 10.7956 14.1092 11.5587 14.6718 12.1213C15.2344 12.6839 15.9974 13 16.7931 13C17.5887 13 18.3518 12.6839 18.9144 12.1213C19.477 11.5587 19.7931 10.7956 19.7931 10V8C19.7931 7.44772 20.2408 7 20.7931 7C21.3454 7 21.7931 7.44772 21.7931 8V10C21.7931 11.3261 21.2663 12.5979 20.3286 13.5355C19.3909 14.4732 18.1192 15 16.7931 15C15.467 15 14.1952 14.4732 13.2576 13.5355C12.3199 12.5979 11.7931 11.3261 11.7931 10V8C11.7931 7.44772 12.2408 7 12.7931 7Z" fill="#A259FF"/>
<path fill-rule="evenodd" clip-rule="evenodd" d="M20.7931 7C21.3454 7 21.7931 7.44772 21.7931 8V10C21.7931 10.7956 22.1092 11.5587 22.6718 12.1213C23.2344 12.6839 23.9974 13 24.7931 13C25.5887 13 26.3518 12.6839 26.9144 12.1213C27.477 11.5587 27.7931 10.7956 27.7931 10V8C27.7931 7.44772 28.2408 7 28.7931 7C29.3454 7 29.7931 7.44772 29.7931 8V10C29.7931 11.3261 29.2663 12.5979 28.3286 13.5355C27.3909 14.4732 26.1192 15 24.7931 15C23.467 15 22.1952 14.4732 21.2576 13.5355C20.3199 12.5979 19.7931 11.3261 19.7931 10V8C19.7931 7.44772 20.2408 7 20.7931 7Z" fill="#A259FF"/>
</svg>
