<svg width="33" height="32" viewBox="0 0 33 32" fill="none" xmlns="http://www.w3.org/2000/svg">
<path d="M16.793 11.0005C16.793 8.25045 19.1055 5.96295 21.8555 6.00045C22.8186 6.01157 23.7579 6.3006 24.5607 6.8328C25.3634 7.365 25.9953 8.11771 26.3805 9.00045H30.793L26.7555 13.038C26.495 17.0937 24.6996 20.8979 21.7345 23.6773C18.7694 26.4566 14.8571 28.0025 10.793 28.0005C6.79303 28.0005 5.79303 26.5005 5.79303 26.5005C5.79303 26.5005 9.79303 25.0005 11.793 22.0005C11.793 22.0005 3.79303 18.0005 5.79303 7.00045C5.79303 7.00045 10.793 12.0005 16.793 13.0005V11.0005Z" stroke="#858584" stroke-width="2" stroke-linecap="round" stroke-linejoin="round"/>
</svg>
