<svg width="33" height="32" viewBox="0 0 33 32" fill="none" xmlns="http://www.w3.org/2000/svg">
<path fill-rule="evenodd" clip-rule="evenodd" d="M14.3212 11.1183C14.6464 10.9443 15.0409 10.9634 15.3478 11.168L21.3478 15.168C21.626 15.3534 21.7931 15.6656 21.7931 16C21.7931 16.3344 21.626 16.6466 21.3478 16.8321L15.3478 20.8321C15.0409 21.0366 14.6464 21.0557 14.3212 20.8817C13.9961 20.7077 13.7931 20.3688 13.7931 20V12C13.7931 11.6312 13.9961 11.2923 14.3212 11.1183ZM15.7931 13.8685V18.1315L18.9903 16L15.7931 13.8685Z" fill="#858584"/>
<path fill-rule="evenodd" clip-rule="evenodd" d="M16.7916 5.04985L16.7747 5.0498L16.7119 5.04983C16.6574 5.04996 16.5781 5.05035 16.4762 5.05143C16.2725 5.05359 15.9787 5.0585 15.6137 5.06945C14.8843 5.09135 13.8677 5.13749 12.7168 5.23466C10.4404 5.42685 7.54237 5.82571 5.31117 6.67823L5.29647 6.68398C4.8582 6.85941 4.46729 7.13539 4.15527 7.48966C3.84325 7.84393 3.61886 8.26657 3.5002 8.7235L3.49923 8.72726C3.18782 9.94582 2.79309 12.2055 2.79309 15.9999C2.79309 19.7942 3.18782 22.0539 3.49923 23.2725L3.5002 23.2762C3.61886 23.7332 3.84325 24.1558 4.15527 24.5101C4.46729 24.8643 4.8582 25.1403 5.29647 25.3157L5.31117 25.3215C7.54237 26.174 10.4404 26.5729 12.7168 26.7651C13.8677 26.8622 14.8843 26.9084 15.6137 26.9303C15.9787 26.9412 16.2725 26.9461 16.4762 26.9483C16.5781 26.9494 16.6574 26.9498 16.7119 26.9499L16.7747 26.9499L16.7916 26.9499H16.7946L16.8115 26.9499L16.8743 26.9499C16.9288 26.9498 17.0081 26.9494 17.11 26.9483C17.3137 26.9461 17.6075 26.9412 17.9725 26.9303C18.7019 26.9084 19.7185 26.8622 20.8694 26.7651C23.1458 26.5729 26.0438 26.174 28.275 25.3215L28.2897 25.3157C28.728 25.1403 29.1189 24.8643 29.4309 24.5101C29.7429 24.1558 29.9673 23.7332 30.086 23.2762L30.087 23.2725C30.3984 22.0539 30.7931 19.7942 30.7931 15.9999C30.7931 12.2055 30.3984 9.94582 30.087 8.72726L30.086 8.7235C29.9673 8.26657 29.7429 7.84393 29.4309 7.48966C29.1189 7.13539 28.728 6.85941 28.2897 6.68398L28.275 6.67823C26.0438 5.82571 23.1458 5.42685 20.8694 5.23466C19.7185 5.13749 18.7019 5.09135 17.9725 5.06945C17.6075 5.0585 17.3137 5.05359 17.11 5.05143C17.0081 5.05035 16.9288 5.04996 16.8743 5.04983L16.8115 5.0498L16.7946 5.04985H16.7916ZM16.7878 24.9499L16.7985 24.9498L16.8017 24.9499L16.8148 24.9499L16.8698 24.9499C16.919 24.9498 16.9927 24.9494 17.0888 24.9484C17.2808 24.9464 17.5617 24.9417 17.9125 24.9312C18.6147 24.9101 19.5942 24.8656 20.7011 24.7722C22.9372 24.5834 25.5972 24.2018 27.5527 23.4565C27.6975 23.3974 27.8266 23.3056 27.93 23.1882C28.0345 23.0695 28.1098 22.928 28.1498 22.7751C28.4134 21.7429 28.7931 19.6529 28.7931 15.9999C28.7931 12.3468 28.4134 10.2568 28.1498 9.22464C28.1098 9.07168 28.0345 8.9302 27.93 8.81154C27.8266 8.69415 27.6975 8.60233 27.5527 8.54326C25.5972 7.79791 22.9372 7.41635 20.7011 7.22757C19.5942 7.13411 18.6147 7.08963 17.9125 7.06855C17.5617 7.05802 17.2808 7.05336 17.0888 7.05132C16.9927 7.0503 16.919 7.04994 16.8698 7.04983L16.8148 7.0498L16.8017 7.04983L16.7988 7.04985L16.7877 7.04991L16.7845 7.04983L16.7714 7.0498L16.7164 7.04983C16.6672 7.04994 16.5934 7.0503 16.4974 7.05132C16.3054 7.05336 16.0245 7.05802 15.6737 7.06855C14.9715 7.08963 13.992 7.13411 12.885 7.22757C10.649 7.41635 7.98899 7.79791 6.03348 8.54327C5.8887 8.60234 5.75954 8.69415 5.65615 8.81154C5.55165 8.9302 5.47639 9.07168 5.4364 9.22464C5.17283 10.2569 4.79309 12.3468 4.79309 15.9999C4.79309 19.6529 5.17282 21.7429 5.43639 22.7751C5.47638 22.928 5.55164 23.0695 5.65615 23.1882C5.75954 23.3056 5.8887 23.3974 6.03347 23.4565C7.98899 24.2018 10.649 24.5834 12.885 24.7722C13.992 24.8656 14.9715 24.9101 15.6737 24.9312C16.0245 24.9417 16.3054 24.9464 16.4974 24.9484C16.5934 24.9494 16.6672 24.9498 16.7164 24.9499L16.7714 24.9499L16.7845 24.9499L16.7878 24.9499Z" fill="#858584"/>
</svg>
