<svg width="241" height="240" viewBox="0 0 241 240" fill="none" xmlns="http://www.w3.org/2000/svg">
<path d="M0.5 20C0.5 8.9543 9.45431 0 20.5 0H220.5C231.546 0 240.5 8.95431 240.5 20V240H0.5V20Z" fill="white" fill-opacity="0.1"/>
<path d="M78.3125 154.375H106.438C110.455 154.375 114.382 153.184 117.723 150.952C121.063 148.72 123.666 145.547 125.204 141.836C126.741 138.124 127.143 134.04 126.36 130.1C125.576 126.159 123.641 122.54 120.801 119.699C117.96 116.859 114.341 114.924 110.4 114.14C106.46 113.357 102.376 113.759 98.6642 115.296C94.9526 116.834 91.7802 119.437 89.5483 122.777C87.3163 126.118 86.125 130.045 86.125 134.063C86.125 148.125 78.3125 154.375 78.3125 154.375Z" stroke="white" stroke-width="3" stroke-linecap="round" stroke-linejoin="round"/>
<path d="M114.406 115.391C121.906 105.273 140.968 82.1094 158.39 82.1094C158.39 99.5312 135.226 118.594 125.109 126.094" stroke="white" stroke-width="3" stroke-linecap="round" stroke-linejoin="round"/>
<path d="M122.453 105.391C127.746 108.378 132.122 112.754 135.109 118.047" stroke="white" stroke-width="3" stroke-linecap="round" stroke-linejoin="round"/>
</svg>
