<svg width="241" height="240" viewBox="0 0 241 240" fill="none" xmlns="http://www.w3.org/2000/svg">
<path d="M0.5 20C0.5 8.9543 9.45431 0 20.5 0H220.5C231.546 0 240.5 8.95431 240.5 20V240H0.5V20Z" fill="white" fill-opacity="0.1"/>
<path d="M84.8358 137.578L94.2889 84.0232C94.355 83.619 94.5008 83.232 94.718 82.8848C94.9352 82.5375 95.2193 82.237 95.5538 82.0006C95.8882 81.7643 96.2664 81.5969 96.6663 81.5083C97.0661 81.4196 97.4796 81.4114 97.8827 81.4841L119.445 85.2732C120.26 85.4255 120.982 85.8914 121.457 86.5708C121.932 87.2501 122.121 88.0886 121.984 88.906L112.492 142.773C111.842 146.4 109.798 149.629 106.797 151.768C103.797 153.907 100.078 154.787 96.4373 154.219C88.6639 152.969 83.4686 145.351 84.8358 137.578Z" stroke="white" stroke-width="3" stroke-linecap="round" stroke-linejoin="round"/>
<path d="M116.71 118.75L145.186 108.399C145.573 108.256 145.985 108.191 146.397 108.208C146.81 108.225 147.215 108.323 147.589 108.498C147.963 108.672 148.299 108.919 148.577 109.223C148.855 109.528 149.07 109.885 149.21 110.274L156.71 130.82C156.986 131.598 156.944 132.453 156.593 133.199C156.242 133.945 155.61 134.523 154.835 134.805L103.428 153.516" stroke="white" stroke-width="3" stroke-linecap="round" stroke-linejoin="round"/>
<path d="M156.438 133.477V151.25C156.438 152.079 156.108 152.874 155.522 153.46C154.936 154.046 154.141 154.375 153.312 154.375H98.625" stroke="white" stroke-width="3" stroke-linecap="round" stroke-linejoin="round"/>
<path d="M98.625 145C101.214 145 103.312 142.901 103.312 140.312C103.312 137.724 101.214 135.625 98.625 135.625C96.0362 135.625 93.9375 137.724 93.9375 140.312C93.9375 142.901 96.0362 145 98.625 145Z" fill="white"/>
</svg>
