<svg width="241" height="240" viewBox="0 0 241 240" fill="none" xmlns="http://www.w3.org/2000/svg">
<path d="M0.5 20C0.5 8.9543 9.45431 0 20.5 0H220.5C231.546 0 240.5 8.95431 240.5 20V240H0.5V20Z" fill="white" fill-opacity="0.1"/>
<path d="M151.75 151.25H89.25C87.5924 151.25 86.0027 150.592 84.8306 149.419C83.6585 148.247 83 146.658 83 145V101.25C83 99.5924 83.6585 98.0027 84.8306 96.8306C86.0027 95.6585 87.5924 95 89.25 95H101.75L108 85.625H133L139.25 95H151.75C153.408 95 154.997 95.6585 156.169 96.8306C157.342 98.0027 158 99.5924 158 101.25V145C158 146.658 157.342 148.247 156.169 149.419C154.997 150.592 153.408 151.25 151.75 151.25Z" stroke="white" stroke-width="3" stroke-linecap="round" stroke-linejoin="round"/>
<path d="M120.5 135.625C128.267 135.625 134.562 129.329 134.562 121.562C134.562 113.796 128.267 107.5 120.5 107.5C112.733 107.5 106.438 113.796 106.438 121.562C106.438 129.329 112.733 135.625 120.5 135.625Z" stroke="white" stroke-width="3" stroke-linecap="round" stroke-linejoin="round"/>
</svg>
