<svg width="241" height="240" viewBox="0 0 241 240" fill="none" xmlns="http://www.w3.org/2000/svg">
<path d="M0.5 20C0.5 8.9543 9.45431 0 20.5 0H220.5C231.546 0 240.5 8.95431 240.5 20V240H0.5V20Z" fill="white" fill-opacity="0.1"/>
<path d="M79.875 93.4375H129.875C133.19 93.4375 136.37 94.7545 138.714 97.0987C141.058 99.4429 142.375 102.622 142.375 105.938V143.438C142.375 144.266 142.046 145.061 141.46 145.647C140.874 146.233 140.079 146.562 139.25 146.562H89.25C85.9348 146.562 82.7554 145.246 80.4112 142.901C78.067 140.557 76.75 137.378 76.75 134.062V96.5625C76.75 95.7337 77.0792 94.9388 77.6653 94.3528C78.2513 93.7667 79.0462 93.4375 79.875 93.4375V93.4375Z" stroke="white" stroke-width="3" stroke-linecap="round" stroke-linejoin="round"/>
<path d="M142.375 113.75L164.25 101.25V138.75L142.375 126.25" stroke="white" stroke-width="3" stroke-linecap="round" stroke-linejoin="round"/>
</svg>
