<svg width="241" height="240" viewBox="0 0 241 240" fill="none" xmlns="http://www.w3.org/2000/svg">
<path d="M0.5 20C0.5 8.9543 9.45431 0 20.5 0H220.5C231.546 0 240.5 8.95431 240.5 20V240H0.5V20Z" fill="white" fill-opacity="0.1"/>
<path d="M120.5 154.375C139.485 154.375 154.875 138.985 154.875 120C154.875 101.015 139.485 85.625 120.5 85.625C101.515 85.625 86.125 101.015 86.125 120C86.125 138.985 101.515 154.375 120.5 154.375Z" stroke="white" stroke-width="3" stroke-linecap="round" stroke-linejoin="round"/>
<path d="M142.453 93.5552C153.273 90.5865 161.398 90.8599 163.82 95.0005C168.117 102.461 152.219 119.727 128.312 133.516C104.406 147.305 81.5154 152.461 77.1795 145.001C74.7967 140.86 78.6248 133.672 86.5936 125.782" stroke="white" stroke-width="3" stroke-linecap="round" stroke-linejoin="round"/>
</svg>
